G04 #@! TF.GenerationSoftware,KiCad,Pcbnew,(5.1.9)-1*
G04 #@! TF.CreationDate,2021-05-12T03:30:49-04:00*
G04 #@! TF.ProjectId,attiny_synth,61747469-6e79-45f7-9379-6e74682e6b69,rev?*
G04 #@! TF.SameCoordinates,Original*
G04 #@! TF.FileFunction,Soldermask,Top*
G04 #@! TF.FilePolarity,Negative*
%FSLAX46Y46*%
G04 Gerber Fmt 4.6, Leading zero omitted, Abs format (unit mm)*
G04 Created by KiCad (PCBNEW (5.1.9)-1) date 2021-05-12 03:30:49*
%MOMM*%
%LPD*%
G01*
G04 APERTURE LIST*
%ADD10C,1.600000*%
%ADD11C,0.900000*%
%ADD12C,8.600000*%
%ADD13O,1.600000X1.600000*%
%ADD14R,1.600000X1.600000*%
%ADD15O,2.000000X1.905000*%
%ADD16R,2.000000X1.905000*%
%ADD17O,3.500000X3.500000*%
%ADD18R,2.500000X2.500000*%
%ADD19C,2.000000*%
%ADD20O,1.800000X3.600000*%
%ADD21O,1.700000X1.700000*%
%ADD22R,1.700000X1.700000*%
G04 APERTURE END LIST*
D10*
X145250000Y-121000000D03*
X145250000Y-126000000D03*
X129250000Y-121000000D03*
X129250000Y-116000000D03*
X172500000Y-109500000D03*
X177500000Y-109500000D03*
X170500000Y-122500000D03*
X175500000Y-122500000D03*
X164000000Y-109500000D03*
X169000000Y-109500000D03*
X162000000Y-122500000D03*
X167000000Y-122500000D03*
X149500000Y-121250000D03*
X149500000Y-116250000D03*
X153250000Y-122500000D03*
X158250000Y-122500000D03*
X130000000Y-74000000D03*
X135000000Y-74000000D03*
X116000000Y-59000000D03*
X111000000Y-59000000D03*
X119000000Y-59000000D03*
X124000000Y-59000000D03*
X124000000Y-130500000D03*
X124000000Y-125500000D03*
X130000000Y-103000000D03*
X130000000Y-108000000D03*
X124000000Y-122500000D03*
X124000000Y-117500000D03*
X125000000Y-111500000D03*
X130000000Y-111500000D03*
X134000000Y-58000000D03*
X139000000Y-58000000D03*
X134000000Y-53000000D03*
X139000000Y-53000000D03*
D11*
X179780419Y-50219581D03*
X177500000Y-49275000D03*
X175219581Y-50219581D03*
X174275000Y-52500000D03*
X175219581Y-54780419D03*
X177500000Y-55725000D03*
X179780419Y-54780419D03*
X180725000Y-52500000D03*
D12*
X177500000Y-52500000D03*
D11*
X179780419Y-135219581D03*
X177500000Y-134275000D03*
X175219581Y-135219581D03*
X174275000Y-137500000D03*
X175219581Y-139780419D03*
X177500000Y-140725000D03*
X179780419Y-139780419D03*
X180725000Y-137500000D03*
D12*
X177500000Y-137500000D03*
D11*
X94780419Y-135219581D03*
X92500000Y-134275000D03*
X90219581Y-135219581D03*
X89275000Y-137500000D03*
X90219581Y-139780419D03*
X92500000Y-140725000D03*
X94780419Y-139780419D03*
X95725000Y-137500000D03*
D12*
X92500000Y-137500000D03*
D11*
X94780419Y-50219581D03*
X92500000Y-49275000D03*
X90219581Y-50219581D03*
X89275000Y-52500000D03*
X90219581Y-54780419D03*
X92500000Y-55725000D03*
X94780419Y-54780419D03*
X95725000Y-52500000D03*
D12*
X92500000Y-52500000D03*
D13*
X141620000Y-108000000D03*
X134000000Y-125780000D03*
X141620000Y-110540000D03*
X134000000Y-123240000D03*
X141620000Y-113080000D03*
X134000000Y-120700000D03*
X141620000Y-115620000D03*
X134000000Y-118160000D03*
X141620000Y-118160000D03*
X134000000Y-115620000D03*
X141620000Y-120700000D03*
X134000000Y-113080000D03*
X141620000Y-123240000D03*
X134000000Y-110540000D03*
X141620000Y-125780000D03*
D14*
X134000000Y-108000000D03*
D13*
X136620000Y-78000000D03*
X129000000Y-85620000D03*
X136620000Y-80540000D03*
X129000000Y-83080000D03*
X136620000Y-83080000D03*
X129000000Y-80540000D03*
X136620000Y-85620000D03*
D14*
X129000000Y-78000000D03*
D15*
X142000000Y-58080000D03*
X142000000Y-55540000D03*
D16*
X142000000Y-53000000D03*
D17*
X158660000Y-55540000D03*
D18*
X107250000Y-100500000D03*
X110000000Y-93000000D03*
X117000000Y-90000000D03*
X109000000Y-73000000D03*
X158750000Y-94500000D03*
X171750000Y-97250000D03*
X142000000Y-63000000D03*
X130250000Y-131000000D03*
X134750000Y-101500000D03*
X116000000Y-63000000D03*
X124000000Y-63000000D03*
X109000000Y-66000000D03*
X140900000Y-80000000D03*
X141000000Y-89000000D03*
D19*
X118500000Y-78000000D03*
X118500000Y-73500000D03*
X125000000Y-78000000D03*
X125000000Y-73500000D03*
D13*
X172160000Y-105000000D03*
D10*
X162000000Y-105000000D03*
D13*
X168410000Y-133750000D03*
D10*
X158250000Y-133750000D03*
D13*
X169340000Y-115000000D03*
D10*
X179500000Y-115000000D03*
D13*
X165590000Y-128000000D03*
D10*
X175750000Y-128000000D03*
D13*
X165660000Y-115000000D03*
D10*
X155500000Y-115000000D03*
D13*
X152340000Y-128000000D03*
D10*
X162500000Y-128000000D03*
D13*
X119000000Y-127660000D03*
D10*
X119000000Y-117500000D03*
D13*
X125000000Y-97840000D03*
D10*
X125000000Y-108000000D03*
D13*
X115000000Y-117340000D03*
D10*
X115000000Y-127500000D03*
D13*
X120000000Y-97840000D03*
D10*
X120000000Y-108000000D03*
D13*
X113000000Y-76840000D03*
D10*
X113000000Y-87000000D03*
D13*
X108000000Y-76840000D03*
D10*
X108000000Y-87000000D03*
D13*
X115840000Y-70000000D03*
D10*
X126000000Y-70000000D03*
D20*
X167450000Y-87000000D03*
X173150000Y-87000000D03*
X178550000Y-87000000D03*
X167450000Y-77000000D03*
X173150000Y-77000000D03*
X178550000Y-77000000D03*
X102550000Y-97000000D03*
X96850000Y-97000000D03*
X91450000Y-97000000D03*
X102550000Y-87000000D03*
X96850000Y-87000000D03*
X91450000Y-87000000D03*
X102550000Y-77000000D03*
X96850000Y-77000000D03*
X91450000Y-77000000D03*
D21*
X113750000Y-53130000D03*
X113750000Y-50590000D03*
X116290000Y-53130000D03*
X116290000Y-50590000D03*
X118830000Y-53130000D03*
X118830000Y-50590000D03*
X121370000Y-53130000D03*
X121370000Y-50590000D03*
X123910000Y-53130000D03*
D22*
X123910000Y-50590000D03*
M02*
