G04 #@! TF.GenerationSoftware,KiCad,Pcbnew,(5.1.9)-1*
G04 #@! TF.CreationDate,2021-05-12T03:30:49-04:00*
G04 #@! TF.ProjectId,attiny_synth,61747469-6e79-45f7-9379-6e74682e6b69,rev?*
G04 #@! TF.SameCoordinates,Original*
G04 #@! TF.FileFunction,Legend,Top*
G04 #@! TF.FilePolarity,Positive*
%FSLAX46Y46*%
G04 Gerber Fmt 4.6, Leading zero omitted, Abs format (unit mm)*
G04 Created by KiCad (PCBNEW (5.1.9)-1) date 2021-05-12 03:30:49*
%MOMM*%
%LPD*%
G01*
G04 APERTURE LIST*
%ADD10C,0.150000*%
%ADD11C,0.120000*%
%ADD12C,0.200000*%
%ADD13C,0.127000*%
%ADD14C,0.015000*%
%ADD15C,1.600000*%
%ADD16C,0.900000*%
%ADD17C,8.600000*%
%ADD18O,1.600000X1.600000*%
%ADD19R,1.600000X1.600000*%
%ADD20O,2.000000X1.905000*%
%ADD21R,2.000000X1.905000*%
%ADD22O,3.500000X3.500000*%
%ADD23R,2.500000X2.500000*%
%ADD24C,2.000000*%
%ADD25O,1.800000X3.600000*%
%ADD26O,1.700000X1.700000*%
%ADD27R,1.700000X1.700000*%
G04 APERTURE END LIST*
D10*
X89133214Y-111850000D02*
X89847500Y-111850000D01*
X88990357Y-112278571D02*
X89490357Y-110778571D01*
X89990357Y-112278571D01*
X90276071Y-110778571D02*
X91133214Y-110778571D01*
X90704642Y-112278571D02*
X90704642Y-110778571D01*
X91418928Y-110778571D02*
X92276071Y-110778571D01*
X91847500Y-112278571D02*
X91847500Y-110778571D01*
X92776071Y-112278571D02*
X92776071Y-110778571D01*
X93490357Y-112278571D02*
X93490357Y-110778571D01*
X94347500Y-112278571D01*
X94347500Y-110778571D01*
X95347500Y-111564285D02*
X95347500Y-112278571D01*
X94847500Y-110778571D02*
X95347500Y-111564285D01*
X95847500Y-110778571D01*
X96561785Y-111421428D02*
X96418928Y-111350000D01*
X96347500Y-111278571D01*
X96276071Y-111135714D01*
X96276071Y-111064285D01*
X96347500Y-110921428D01*
X96418928Y-110850000D01*
X96561785Y-110778571D01*
X96847500Y-110778571D01*
X96990357Y-110850000D01*
X97061785Y-110921428D01*
X97133214Y-111064285D01*
X97133214Y-111135714D01*
X97061785Y-111278571D01*
X96990357Y-111350000D01*
X96847500Y-111421428D01*
X96561785Y-111421428D01*
X96418928Y-111492857D01*
X96347500Y-111564285D01*
X96276071Y-111707142D01*
X96276071Y-111992857D01*
X96347500Y-112135714D01*
X96418928Y-112207142D01*
X96561785Y-112278571D01*
X96847500Y-112278571D01*
X96990357Y-112207142D01*
X97061785Y-112135714D01*
X97133214Y-111992857D01*
X97133214Y-111707142D01*
X97061785Y-111564285D01*
X96990357Y-111492857D01*
X96847500Y-111421428D01*
X98490357Y-110778571D02*
X97776071Y-110778571D01*
X97704642Y-111492857D01*
X97776071Y-111421428D01*
X97918928Y-111350000D01*
X98276071Y-111350000D01*
X98418928Y-111421428D01*
X98490357Y-111492857D01*
X98561785Y-111635714D01*
X98561785Y-111992857D01*
X98490357Y-112135714D01*
X98418928Y-112207142D01*
X98276071Y-112278571D01*
X97918928Y-112278571D01*
X97776071Y-112207142D01*
X97704642Y-112135714D01*
X100276071Y-112207142D02*
X100490357Y-112278571D01*
X100847500Y-112278571D01*
X100990357Y-112207142D01*
X101061785Y-112135714D01*
X101133214Y-111992857D01*
X101133214Y-111850000D01*
X101061785Y-111707142D01*
X100990357Y-111635714D01*
X100847500Y-111564285D01*
X100561785Y-111492857D01*
X100418928Y-111421428D01*
X100347500Y-111350000D01*
X100276071Y-111207142D01*
X100276071Y-111064285D01*
X100347500Y-110921428D01*
X100418928Y-110850000D01*
X100561785Y-110778571D01*
X100918928Y-110778571D01*
X101133214Y-110850000D01*
X101633214Y-111278571D02*
X101990357Y-112278571D01*
X102347500Y-111278571D02*
X101990357Y-112278571D01*
X101847500Y-112635714D01*
X101776071Y-112707142D01*
X101633214Y-112778571D01*
X102918928Y-111278571D02*
X102918928Y-112278571D01*
X102918928Y-111421428D02*
X102990357Y-111350000D01*
X103133214Y-111278571D01*
X103347500Y-111278571D01*
X103490357Y-111350000D01*
X103561785Y-111492857D01*
X103561785Y-112278571D01*
X104061785Y-111278571D02*
X104633214Y-111278571D01*
X104276071Y-110778571D02*
X104276071Y-112064285D01*
X104347500Y-112207142D01*
X104490357Y-112278571D01*
X104633214Y-112278571D01*
X105133214Y-112278571D02*
X105133214Y-110778571D01*
X105776071Y-112278571D02*
X105776071Y-111492857D01*
X105704642Y-111350000D01*
X105561785Y-111278571D01*
X105347500Y-111278571D01*
X105204642Y-111350000D01*
X105133214Y-111421428D01*
X88990357Y-113178571D02*
X89490357Y-114678571D01*
X89990357Y-113178571D01*
X91061785Y-114607142D02*
X90918928Y-114678571D01*
X90633214Y-114678571D01*
X90490357Y-114607142D01*
X90418928Y-114464285D01*
X90418928Y-113892857D01*
X90490357Y-113750000D01*
X90633214Y-113678571D01*
X90918928Y-113678571D01*
X91061785Y-113750000D01*
X91133214Y-113892857D01*
X91133214Y-114035714D01*
X90418928Y-114178571D01*
X91776071Y-114678571D02*
X91776071Y-113678571D01*
X91776071Y-113964285D02*
X91847500Y-113821428D01*
X91918928Y-113750000D01*
X92061785Y-113678571D01*
X92204642Y-113678571D01*
X92633214Y-114607142D02*
X92776071Y-114678571D01*
X93061785Y-114678571D01*
X93204642Y-114607142D01*
X93276071Y-114464285D01*
X93276071Y-114392857D01*
X93204642Y-114250000D01*
X93061785Y-114178571D01*
X92847500Y-114178571D01*
X92704642Y-114107142D01*
X92633214Y-113964285D01*
X92633214Y-113892857D01*
X92704642Y-113750000D01*
X92847500Y-113678571D01*
X93061785Y-113678571D01*
X93204642Y-113750000D01*
X93918928Y-114678571D02*
X93918928Y-113678571D01*
X93918928Y-113178571D02*
X93847500Y-113250000D01*
X93918928Y-113321428D01*
X93990357Y-113250000D01*
X93918928Y-113178571D01*
X93918928Y-113321428D01*
X94847500Y-114678571D02*
X94704642Y-114607142D01*
X94633214Y-114535714D01*
X94561785Y-114392857D01*
X94561785Y-113964285D01*
X94633214Y-113821428D01*
X94704642Y-113750000D01*
X94847500Y-113678571D01*
X95061785Y-113678571D01*
X95204642Y-113750000D01*
X95276071Y-113821428D01*
X95347500Y-113964285D01*
X95347500Y-114392857D01*
X95276071Y-114535714D01*
X95204642Y-114607142D01*
X95061785Y-114678571D01*
X94847500Y-114678571D01*
X95990357Y-113678571D02*
X95990357Y-114678571D01*
X95990357Y-113821428D02*
X96061785Y-113750000D01*
X96204642Y-113678571D01*
X96418928Y-113678571D01*
X96561785Y-113750000D01*
X96633214Y-113892857D01*
X96633214Y-114678571D01*
X98776071Y-113178571D02*
X98918928Y-113178571D01*
X99061785Y-113250000D01*
X99133214Y-113321428D01*
X99204642Y-113464285D01*
X99276071Y-113750000D01*
X99276071Y-114107142D01*
X99204642Y-114392857D01*
X99133214Y-114535714D01*
X99061785Y-114607142D01*
X98918928Y-114678571D01*
X98776071Y-114678571D01*
X98633214Y-114607142D01*
X98561785Y-114535714D01*
X98490357Y-114392857D01*
X98418928Y-114107142D01*
X98418928Y-113750000D01*
X98490357Y-113464285D01*
X98561785Y-113321428D01*
X98633214Y-113250000D01*
X98776071Y-113178571D01*
X89133214Y-117007142D02*
X89347500Y-117078571D01*
X89704642Y-117078571D01*
X89847500Y-117007142D01*
X89918928Y-116935714D01*
X89990357Y-116792857D01*
X89990357Y-116650000D01*
X89918928Y-116507142D01*
X89847500Y-116435714D01*
X89704642Y-116364285D01*
X89418928Y-116292857D01*
X89276071Y-116221428D01*
X89204642Y-116150000D01*
X89133214Y-116007142D01*
X89133214Y-115864285D01*
X89204642Y-115721428D01*
X89276071Y-115650000D01*
X89418928Y-115578571D01*
X89776071Y-115578571D01*
X89990357Y-115650000D01*
X90418928Y-116078571D02*
X90990357Y-116078571D01*
X90633214Y-115578571D02*
X90633214Y-116864285D01*
X90704642Y-117007142D01*
X90847500Y-117078571D01*
X90990357Y-117078571D01*
X92061785Y-117007142D02*
X91918928Y-117078571D01*
X91633214Y-117078571D01*
X91490357Y-117007142D01*
X91418928Y-116864285D01*
X91418928Y-116292857D01*
X91490357Y-116150000D01*
X91633214Y-116078571D01*
X91918928Y-116078571D01*
X92061785Y-116150000D01*
X92133214Y-116292857D01*
X92133214Y-116435714D01*
X91418928Y-116578571D01*
X92561785Y-116078571D02*
X93133214Y-116078571D01*
X92776071Y-117078571D02*
X92776071Y-115792857D01*
X92847500Y-115650000D01*
X92990357Y-115578571D01*
X93133214Y-115578571D01*
X94276071Y-117078571D02*
X94276071Y-116292857D01*
X94204642Y-116150000D01*
X94061785Y-116078571D01*
X93776071Y-116078571D01*
X93633214Y-116150000D01*
X94276071Y-117007142D02*
X94133214Y-117078571D01*
X93776071Y-117078571D01*
X93633214Y-117007142D01*
X93561785Y-116864285D01*
X93561785Y-116721428D01*
X93633214Y-116578571D01*
X93776071Y-116507142D01*
X94133214Y-116507142D01*
X94276071Y-116435714D01*
X94990357Y-116078571D02*
X94990357Y-117078571D01*
X94990357Y-116221428D02*
X95061785Y-116150000D01*
X95204642Y-116078571D01*
X95418928Y-116078571D01*
X95561785Y-116150000D01*
X95633214Y-116292857D01*
X95633214Y-117078571D01*
X97418928Y-116650000D02*
X98133214Y-116650000D01*
X97276071Y-117078571D02*
X97776071Y-115578571D01*
X98276071Y-117078571D01*
X98776071Y-117078571D02*
X98776071Y-115578571D01*
X98776071Y-116150000D02*
X98918928Y-116078571D01*
X99204642Y-116078571D01*
X99347500Y-116150000D01*
X99418928Y-116221428D01*
X99490357Y-116364285D01*
X99490357Y-116792857D01*
X99418928Y-116935714D01*
X99347500Y-117007142D01*
X99204642Y-117078571D01*
X98918928Y-117078571D01*
X98776071Y-117007142D01*
X100133214Y-117078571D02*
X100133214Y-116078571D01*
X100133214Y-115578571D02*
X100061785Y-115650000D01*
X100133214Y-115721428D01*
X100204642Y-115650000D01*
X100133214Y-115578571D01*
X100133214Y-115721428D01*
X100847500Y-116507142D02*
X101990357Y-116507142D01*
X102704642Y-117078571D02*
X102704642Y-115578571D01*
X103561785Y-117078571D02*
X102918928Y-116221428D01*
X103561785Y-115578571D02*
X102704642Y-116435714D01*
X104847500Y-117078571D02*
X104847500Y-116292857D01*
X104776071Y-116150000D01*
X104633214Y-116078571D01*
X104347500Y-116078571D01*
X104204642Y-116150000D01*
X104847500Y-117007142D02*
X104704642Y-117078571D01*
X104347500Y-117078571D01*
X104204642Y-117007142D01*
X104133214Y-116864285D01*
X104133214Y-116721428D01*
X104204642Y-116578571D01*
X104347500Y-116507142D01*
X104704642Y-116507142D01*
X104847500Y-116435714D01*
X105561785Y-117078571D02*
X105561785Y-116078571D01*
X105561785Y-116364285D02*
X105633214Y-116221428D01*
X105704642Y-116150000D01*
X105847500Y-116078571D01*
X105990357Y-116078571D01*
X107133214Y-117078571D02*
X107133214Y-116292857D01*
X107061785Y-116150000D01*
X106918928Y-116078571D01*
X106633214Y-116078571D01*
X106490357Y-116150000D01*
X107133214Y-117007142D02*
X106990357Y-117078571D01*
X106633214Y-117078571D01*
X106490357Y-117007142D01*
X106418928Y-116864285D01*
X106418928Y-116721428D01*
X106490357Y-116578571D01*
X106633214Y-116507142D01*
X106990357Y-116507142D01*
X107133214Y-116435714D01*
X107847500Y-117078571D02*
X107847500Y-116078571D01*
X107847500Y-116221428D02*
X107918928Y-116150000D01*
X108061785Y-116078571D01*
X108276071Y-116078571D01*
X108418928Y-116150000D01*
X108490357Y-116292857D01*
X108490357Y-117078571D01*
X108490357Y-116292857D02*
X108561785Y-116150000D01*
X108704642Y-116078571D01*
X108918928Y-116078571D01*
X109061785Y-116150000D01*
X109133214Y-116292857D01*
X109133214Y-117078571D01*
D11*
X143880000Y-127120000D02*
X143880000Y-119880000D01*
X146620000Y-127120000D02*
X146620000Y-119880000D01*
X143880000Y-127120000D02*
X146620000Y-127120000D01*
X143880000Y-119880000D02*
X146620000Y-119880000D01*
X130620000Y-114880000D02*
X130620000Y-122120000D01*
X127880000Y-114880000D02*
X127880000Y-122120000D01*
X130620000Y-114880000D02*
X127880000Y-114880000D01*
X130620000Y-122120000D02*
X127880000Y-122120000D01*
X178620000Y-110870000D02*
X171380000Y-110870000D01*
X178620000Y-108130000D02*
X171380000Y-108130000D01*
X178620000Y-110870000D02*
X178620000Y-108130000D01*
X171380000Y-110870000D02*
X171380000Y-108130000D01*
X176620000Y-123870000D02*
X169380000Y-123870000D01*
X176620000Y-121130000D02*
X169380000Y-121130000D01*
X176620000Y-123870000D02*
X176620000Y-121130000D01*
X169380000Y-123870000D02*
X169380000Y-121130000D01*
X170120000Y-110870000D02*
X162880000Y-110870000D01*
X170120000Y-108130000D02*
X162880000Y-108130000D01*
X170120000Y-110870000D02*
X170120000Y-108130000D01*
X162880000Y-110870000D02*
X162880000Y-108130000D01*
X168120000Y-123870000D02*
X160880000Y-123870000D01*
X168120000Y-121130000D02*
X160880000Y-121130000D01*
X168120000Y-123870000D02*
X168120000Y-121130000D01*
X160880000Y-123870000D02*
X160880000Y-121130000D01*
X150870000Y-115130000D02*
X150870000Y-122370000D01*
X148130000Y-115130000D02*
X148130000Y-122370000D01*
X150870000Y-115130000D02*
X148130000Y-115130000D01*
X150870000Y-122370000D02*
X148130000Y-122370000D01*
X159370000Y-123870000D02*
X152130000Y-123870000D01*
X159370000Y-121130000D02*
X152130000Y-121130000D01*
X159370000Y-123870000D02*
X159370000Y-121130000D01*
X152130000Y-123870000D02*
X152130000Y-121130000D01*
X136120000Y-75370000D02*
X128880000Y-75370000D01*
X136120000Y-72630000D02*
X128880000Y-72630000D01*
X136120000Y-75370000D02*
X136120000Y-72630000D01*
X128880000Y-75370000D02*
X128880000Y-72630000D01*
X109880000Y-57630000D02*
X117120000Y-57630000D01*
X109880000Y-60370000D02*
X117120000Y-60370000D01*
X109880000Y-57630000D02*
X109880000Y-60370000D01*
X117120000Y-57630000D02*
X117120000Y-60370000D01*
X125120000Y-60370000D02*
X117880000Y-60370000D01*
X125120000Y-57630000D02*
X117880000Y-57630000D01*
X125120000Y-60370000D02*
X125120000Y-57630000D01*
X117880000Y-60370000D02*
X117880000Y-57630000D01*
X125370000Y-124380000D02*
X125370000Y-131620000D01*
X122630000Y-124380000D02*
X122630000Y-131620000D01*
X125370000Y-124380000D02*
X122630000Y-124380000D01*
X125370000Y-131620000D02*
X122630000Y-131620000D01*
X128630000Y-109120000D02*
X128630000Y-101880000D01*
X131370000Y-109120000D02*
X131370000Y-101880000D01*
X128630000Y-109120000D02*
X131370000Y-109120000D01*
X128630000Y-101880000D02*
X131370000Y-101880000D01*
X125370000Y-116380000D02*
X125370000Y-123620000D01*
X122630000Y-116380000D02*
X122630000Y-123620000D01*
X125370000Y-116380000D02*
X122630000Y-116380000D01*
X125370000Y-123620000D02*
X122630000Y-123620000D01*
X131120000Y-112870000D02*
X123880000Y-112870000D01*
X131120000Y-110130000D02*
X123880000Y-110130000D01*
X131120000Y-112870000D02*
X131120000Y-110130000D01*
X123880000Y-112870000D02*
X123880000Y-110130000D01*
X140120000Y-59370000D02*
X132880000Y-59370000D01*
X140120000Y-56630000D02*
X132880000Y-56630000D01*
X140120000Y-59370000D02*
X140120000Y-56630000D01*
X132880000Y-59370000D02*
X132880000Y-56630000D01*
X140120000Y-54370000D02*
X132880000Y-54370000D01*
X140120000Y-51630000D02*
X132880000Y-51630000D01*
X140120000Y-54370000D02*
X140120000Y-51630000D01*
X132880000Y-54370000D02*
X132880000Y-51630000D01*
X138810000Y-106670000D02*
G75*
G02*
X136810000Y-106670000I-1000000J0D01*
G01*
X136810000Y-106670000D02*
X135160000Y-106670000D01*
X135160000Y-106670000D02*
X135160000Y-127110000D01*
X135160000Y-127110000D02*
X140460000Y-127110000D01*
X140460000Y-127110000D02*
X140460000Y-106670000D01*
X140460000Y-106670000D02*
X138810000Y-106670000D01*
X133810000Y-76670000D02*
G75*
G02*
X131810000Y-76670000I-1000000J0D01*
G01*
X131810000Y-76670000D02*
X130160000Y-76670000D01*
X130160000Y-76670000D02*
X130160000Y-86950000D01*
X130160000Y-86950000D02*
X135460000Y-86950000D01*
X135460000Y-86950000D02*
X135460000Y-76670000D01*
X135460000Y-76670000D02*
X133810000Y-76670000D01*
X145690000Y-50420000D02*
X145690000Y-60660000D01*
X161580000Y-50420000D02*
X161580000Y-60660000D01*
X161580000Y-50420000D02*
X145690000Y-50420000D01*
X161580000Y-60660000D02*
X145690000Y-60660000D01*
X145690000Y-53000000D02*
X143150000Y-53000000D01*
X145690000Y-55540000D02*
X143150000Y-55540000D01*
X145690000Y-58080000D02*
X143150000Y-58080000D01*
X105800000Y-99050000D02*
X108700000Y-99050000D01*
X108700000Y-99050000D02*
X108700000Y-101950000D01*
X108700000Y-101950000D02*
X105800000Y-101950000D01*
X105800000Y-101950000D02*
X105800000Y-99050000D01*
X108550000Y-91550000D02*
X111450000Y-91550000D01*
X111450000Y-91550000D02*
X111450000Y-94450000D01*
X111450000Y-94450000D02*
X108550000Y-94450000D01*
X108550000Y-94450000D02*
X108550000Y-91550000D01*
X115550000Y-88550000D02*
X118450000Y-88550000D01*
X118450000Y-88550000D02*
X118450000Y-91450000D01*
X118450000Y-91450000D02*
X115550000Y-91450000D01*
X115550000Y-91450000D02*
X115550000Y-88550000D01*
X107550000Y-71550000D02*
X110450000Y-71550000D01*
X110450000Y-71550000D02*
X110450000Y-74450000D01*
X110450000Y-74450000D02*
X107550000Y-74450000D01*
X107550000Y-74450000D02*
X107550000Y-71550000D01*
X157300000Y-93050000D02*
X160200000Y-93050000D01*
X160200000Y-93050000D02*
X160200000Y-95950000D01*
X160200000Y-95950000D02*
X157300000Y-95950000D01*
X157300000Y-95950000D02*
X157300000Y-93050000D01*
X170300000Y-95800000D02*
X173200000Y-95800000D01*
X173200000Y-95800000D02*
X173200000Y-98700000D01*
X173200000Y-98700000D02*
X170300000Y-98700000D01*
X170300000Y-98700000D02*
X170300000Y-95800000D01*
X140550000Y-61550000D02*
X143450000Y-61550000D01*
X143450000Y-61550000D02*
X143450000Y-64450000D01*
X143450000Y-64450000D02*
X140550000Y-64450000D01*
X140550000Y-64450000D02*
X140550000Y-61550000D01*
X128800000Y-129550000D02*
X131700000Y-129550000D01*
X131700000Y-129550000D02*
X131700000Y-132450000D01*
X131700000Y-132450000D02*
X128800000Y-132450000D01*
X128800000Y-132450000D02*
X128800000Y-129550000D01*
X133300000Y-100050000D02*
X136200000Y-100050000D01*
X136200000Y-100050000D02*
X136200000Y-102950000D01*
X136200000Y-102950000D02*
X133300000Y-102950000D01*
X133300000Y-102950000D02*
X133300000Y-100050000D01*
X114550000Y-61550000D02*
X117450000Y-61550000D01*
X117450000Y-61550000D02*
X117450000Y-64450000D01*
X117450000Y-64450000D02*
X114550000Y-64450000D01*
X114550000Y-64450000D02*
X114550000Y-61550000D01*
X122550000Y-61550000D02*
X125450000Y-61550000D01*
X125450000Y-61550000D02*
X125450000Y-64450000D01*
X125450000Y-64450000D02*
X122550000Y-64450000D01*
X122550000Y-64450000D02*
X122550000Y-61550000D01*
X107550000Y-64550000D02*
X110450000Y-64550000D01*
X110450000Y-64550000D02*
X110450000Y-67450000D01*
X110450000Y-67450000D02*
X107550000Y-67450000D01*
X107550000Y-67450000D02*
X107550000Y-64550000D01*
X139450000Y-78550000D02*
X142350000Y-78550000D01*
X142350000Y-78550000D02*
X142350000Y-81450000D01*
X142350000Y-81450000D02*
X139450000Y-81450000D01*
X139450000Y-81450000D02*
X139450000Y-78550000D01*
X139550000Y-87550000D02*
X142450000Y-87550000D01*
X142450000Y-87550000D02*
X142450000Y-90450000D01*
X142450000Y-90450000D02*
X139550000Y-90450000D01*
X139550000Y-90450000D02*
X139550000Y-87550000D01*
X124000000Y-72500000D02*
X119500000Y-72500000D01*
X125250000Y-76500000D02*
X125250000Y-75000000D01*
X119500000Y-79000000D02*
X124000000Y-79000000D01*
X118250000Y-75000000D02*
X118250000Y-76500000D01*
X163810000Y-103630000D02*
X163810000Y-106370000D01*
X163810000Y-106370000D02*
X170350000Y-106370000D01*
X170350000Y-106370000D02*
X170350000Y-103630000D01*
X170350000Y-103630000D02*
X163810000Y-103630000D01*
X163040000Y-105000000D02*
X163810000Y-105000000D01*
X171120000Y-105000000D02*
X170350000Y-105000000D01*
X160060000Y-132380000D02*
X160060000Y-135120000D01*
X160060000Y-135120000D02*
X166600000Y-135120000D01*
X166600000Y-135120000D02*
X166600000Y-132380000D01*
X166600000Y-132380000D02*
X160060000Y-132380000D01*
X159290000Y-133750000D02*
X160060000Y-133750000D01*
X167370000Y-133750000D02*
X166600000Y-133750000D01*
X177690000Y-116370000D02*
X177690000Y-113630000D01*
X177690000Y-113630000D02*
X171150000Y-113630000D01*
X171150000Y-113630000D02*
X171150000Y-116370000D01*
X171150000Y-116370000D02*
X177690000Y-116370000D01*
X178460000Y-115000000D02*
X177690000Y-115000000D01*
X170380000Y-115000000D02*
X171150000Y-115000000D01*
X173940000Y-129370000D02*
X173940000Y-126630000D01*
X173940000Y-126630000D02*
X167400000Y-126630000D01*
X167400000Y-126630000D02*
X167400000Y-129370000D01*
X167400000Y-129370000D02*
X173940000Y-129370000D01*
X174710000Y-128000000D02*
X173940000Y-128000000D01*
X166630000Y-128000000D02*
X167400000Y-128000000D01*
X157310000Y-113630000D02*
X157310000Y-116370000D01*
X157310000Y-116370000D02*
X163850000Y-116370000D01*
X163850000Y-116370000D02*
X163850000Y-113630000D01*
X163850000Y-113630000D02*
X157310000Y-113630000D01*
X156540000Y-115000000D02*
X157310000Y-115000000D01*
X164620000Y-115000000D02*
X163850000Y-115000000D01*
X160690000Y-129370000D02*
X160690000Y-126630000D01*
X160690000Y-126630000D02*
X154150000Y-126630000D01*
X154150000Y-126630000D02*
X154150000Y-129370000D01*
X154150000Y-129370000D02*
X160690000Y-129370000D01*
X161460000Y-128000000D02*
X160690000Y-128000000D01*
X153380000Y-128000000D02*
X154150000Y-128000000D01*
X120370000Y-119310000D02*
X117630000Y-119310000D01*
X117630000Y-119310000D02*
X117630000Y-125850000D01*
X117630000Y-125850000D02*
X120370000Y-125850000D01*
X120370000Y-125850000D02*
X120370000Y-119310000D01*
X119000000Y-118540000D02*
X119000000Y-119310000D01*
X119000000Y-126620000D02*
X119000000Y-125850000D01*
X123630000Y-106190000D02*
X126370000Y-106190000D01*
X126370000Y-106190000D02*
X126370000Y-99650000D01*
X126370000Y-99650000D02*
X123630000Y-99650000D01*
X123630000Y-99650000D02*
X123630000Y-106190000D01*
X125000000Y-106960000D02*
X125000000Y-106190000D01*
X125000000Y-98880000D02*
X125000000Y-99650000D01*
X113630000Y-125690000D02*
X116370000Y-125690000D01*
X116370000Y-125690000D02*
X116370000Y-119150000D01*
X116370000Y-119150000D02*
X113630000Y-119150000D01*
X113630000Y-119150000D02*
X113630000Y-125690000D01*
X115000000Y-126460000D02*
X115000000Y-125690000D01*
X115000000Y-118380000D02*
X115000000Y-119150000D01*
X118630000Y-106190000D02*
X121370000Y-106190000D01*
X121370000Y-106190000D02*
X121370000Y-99650000D01*
X121370000Y-99650000D02*
X118630000Y-99650000D01*
X118630000Y-99650000D02*
X118630000Y-106190000D01*
X120000000Y-106960000D02*
X120000000Y-106190000D01*
X120000000Y-98880000D02*
X120000000Y-99650000D01*
X111630000Y-85190000D02*
X114370000Y-85190000D01*
X114370000Y-85190000D02*
X114370000Y-78650000D01*
X114370000Y-78650000D02*
X111630000Y-78650000D01*
X111630000Y-78650000D02*
X111630000Y-85190000D01*
X113000000Y-85960000D02*
X113000000Y-85190000D01*
X113000000Y-77880000D02*
X113000000Y-78650000D01*
X106630000Y-85190000D02*
X109370000Y-85190000D01*
X109370000Y-85190000D02*
X109370000Y-78650000D01*
X109370000Y-78650000D02*
X106630000Y-78650000D01*
X106630000Y-78650000D02*
X106630000Y-85190000D01*
X108000000Y-85960000D02*
X108000000Y-85190000D01*
X108000000Y-77880000D02*
X108000000Y-78650000D01*
X124190000Y-71370000D02*
X124190000Y-68630000D01*
X124190000Y-68630000D02*
X117650000Y-68630000D01*
X117650000Y-68630000D02*
X117650000Y-71370000D01*
X117650000Y-71370000D02*
X124190000Y-71370000D01*
X124960000Y-70000000D02*
X124190000Y-70000000D01*
X116880000Y-70000000D02*
X117650000Y-70000000D01*
D12*
X181650000Y-90500000D02*
G75*
G03*
X181650000Y-90500000I-100000J0D01*
G01*
D13*
X184750000Y-84250000D02*
X180750000Y-84250000D01*
X184750000Y-89750000D02*
X184750000Y-84250000D01*
X180750000Y-89750000D02*
X184750000Y-89750000D01*
X180750000Y-83500000D02*
X179750000Y-83500000D01*
X180750000Y-84250000D02*
X180750000Y-83500000D01*
X180750000Y-89750000D02*
X180750000Y-84250000D01*
X180750000Y-90500000D02*
X180750000Y-89750000D01*
X179750000Y-90500000D02*
X180750000Y-90500000D01*
X179750000Y-90500000D02*
X179750000Y-90750000D01*
X179750000Y-83500000D02*
X179750000Y-90500000D01*
X179750000Y-83250000D02*
X179750000Y-83500000D01*
X166250000Y-83250000D02*
X179750000Y-83250000D01*
X166250000Y-90750000D02*
X166250000Y-83250000D01*
X179750000Y-90750000D02*
X166250000Y-90750000D01*
D12*
X181650000Y-80500000D02*
G75*
G03*
X181650000Y-80500000I-100000J0D01*
G01*
D13*
X184750000Y-74250000D02*
X180750000Y-74250000D01*
X184750000Y-79750000D02*
X184750000Y-74250000D01*
X180750000Y-79750000D02*
X184750000Y-79750000D01*
X180750000Y-73500000D02*
X179750000Y-73500000D01*
X180750000Y-74250000D02*
X180750000Y-73500000D01*
X180750000Y-79750000D02*
X180750000Y-74250000D01*
X180750000Y-80500000D02*
X180750000Y-79750000D01*
X179750000Y-80500000D02*
X180750000Y-80500000D01*
X179750000Y-80500000D02*
X179750000Y-80750000D01*
X179750000Y-73500000D02*
X179750000Y-80500000D01*
X179750000Y-73250000D02*
X179750000Y-73500000D01*
X166250000Y-73250000D02*
X179750000Y-73250000D01*
X166250000Y-80750000D02*
X166250000Y-73250000D01*
X179750000Y-80750000D02*
X166250000Y-80750000D01*
D12*
X88550000Y-93500000D02*
G75*
G03*
X88550000Y-93500000I-100000J0D01*
G01*
D13*
X85250000Y-99750000D02*
X89250000Y-99750000D01*
X85250000Y-94250000D02*
X85250000Y-99750000D01*
X89250000Y-94250000D02*
X85250000Y-94250000D01*
X89250000Y-100500000D02*
X90250000Y-100500000D01*
X89250000Y-99750000D02*
X89250000Y-100500000D01*
X89250000Y-94250000D02*
X89250000Y-99750000D01*
X89250000Y-93500000D02*
X89250000Y-94250000D01*
X90250000Y-93500000D02*
X89250000Y-93500000D01*
X90250000Y-93500000D02*
X90250000Y-93250000D01*
X90250000Y-100500000D02*
X90250000Y-93500000D01*
X90250000Y-100750000D02*
X90250000Y-100500000D01*
X103750000Y-100750000D02*
X90250000Y-100750000D01*
X103750000Y-93250000D02*
X103750000Y-100750000D01*
X90250000Y-93250000D02*
X103750000Y-93250000D01*
D12*
X88550000Y-83500000D02*
G75*
G03*
X88550000Y-83500000I-100000J0D01*
G01*
D13*
X85250000Y-89750000D02*
X89250000Y-89750000D01*
X85250000Y-84250000D02*
X85250000Y-89750000D01*
X89250000Y-84250000D02*
X85250000Y-84250000D01*
X89250000Y-90500000D02*
X90250000Y-90500000D01*
X89250000Y-89750000D02*
X89250000Y-90500000D01*
X89250000Y-84250000D02*
X89250000Y-89750000D01*
X89250000Y-83500000D02*
X89250000Y-84250000D01*
X90250000Y-83500000D02*
X89250000Y-83500000D01*
X90250000Y-83500000D02*
X90250000Y-83250000D01*
X90250000Y-90500000D02*
X90250000Y-83500000D01*
X90250000Y-90750000D02*
X90250000Y-90500000D01*
X103750000Y-90750000D02*
X90250000Y-90750000D01*
X103750000Y-83250000D02*
X103750000Y-90750000D01*
X90250000Y-83250000D02*
X103750000Y-83250000D01*
D12*
X88550000Y-73500000D02*
G75*
G03*
X88550000Y-73500000I-100000J0D01*
G01*
D13*
X85250000Y-79750000D02*
X89250000Y-79750000D01*
X85250000Y-74250000D02*
X85250000Y-79750000D01*
X89250000Y-74250000D02*
X85250000Y-74250000D01*
X89250000Y-80500000D02*
X90250000Y-80500000D01*
X89250000Y-79750000D02*
X89250000Y-80500000D01*
X89250000Y-74250000D02*
X89250000Y-79750000D01*
X89250000Y-73500000D02*
X89250000Y-74250000D01*
X90250000Y-73500000D02*
X89250000Y-73500000D01*
X90250000Y-73500000D02*
X90250000Y-73250000D01*
X90250000Y-80500000D02*
X90250000Y-73500000D01*
X90250000Y-80750000D02*
X90250000Y-80500000D01*
X103750000Y-80750000D02*
X90250000Y-80750000D01*
X103750000Y-73250000D02*
X103750000Y-80750000D01*
X90250000Y-73250000D02*
X103750000Y-73250000D01*
D11*
X112420000Y-49260000D02*
X112420000Y-54460000D01*
X122640000Y-49260000D02*
X112420000Y-49260000D01*
X125240000Y-54460000D02*
X112420000Y-54460000D01*
X122640000Y-49260000D02*
X122640000Y-51860000D01*
X122640000Y-51860000D02*
X125240000Y-51860000D01*
X125240000Y-51860000D02*
X125240000Y-54460000D01*
X123910000Y-49260000D02*
X125240000Y-49260000D01*
X125240000Y-49260000D02*
X125240000Y-50590000D01*
D10*
X148107142Y-126142857D02*
X148154761Y-126190476D01*
X148202380Y-126333333D01*
X148202380Y-126428571D01*
X148154761Y-126571428D01*
X148059523Y-126666666D01*
X147964285Y-126714285D01*
X147773809Y-126761904D01*
X147630952Y-126761904D01*
X147440476Y-126714285D01*
X147345238Y-126666666D01*
X147250000Y-126571428D01*
X147202380Y-126428571D01*
X147202380Y-126333333D01*
X147250000Y-126190476D01*
X147297619Y-126142857D01*
X148202380Y-125190476D02*
X148202380Y-125761904D01*
X148202380Y-125476190D02*
X147202380Y-125476190D01*
X147345238Y-125571428D01*
X147440476Y-125666666D01*
X147488095Y-125761904D01*
X147202380Y-124857142D02*
X147202380Y-124190476D01*
X148202380Y-124619047D01*
X132107142Y-119142857D02*
X132154761Y-119190476D01*
X132202380Y-119333333D01*
X132202380Y-119428571D01*
X132154761Y-119571428D01*
X132059523Y-119666666D01*
X131964285Y-119714285D01*
X131773809Y-119761904D01*
X131630952Y-119761904D01*
X131440476Y-119714285D01*
X131345238Y-119666666D01*
X131250000Y-119571428D01*
X131202380Y-119428571D01*
X131202380Y-119333333D01*
X131250000Y-119190476D01*
X131297619Y-119142857D01*
X132202380Y-118190476D02*
X132202380Y-118761904D01*
X132202380Y-118476190D02*
X131202380Y-118476190D01*
X131345238Y-118571428D01*
X131440476Y-118666666D01*
X131488095Y-118761904D01*
X131202380Y-117333333D02*
X131202380Y-117523809D01*
X131250000Y-117619047D01*
X131297619Y-117666666D01*
X131440476Y-117761904D01*
X131630952Y-117809523D01*
X132011904Y-117809523D01*
X132107142Y-117761904D01*
X132154761Y-117714285D01*
X132202380Y-117619047D01*
X132202380Y-117428571D01*
X132154761Y-117333333D01*
X132107142Y-117285714D01*
X132011904Y-117238095D01*
X131773809Y-117238095D01*
X131678571Y-117285714D01*
X131630952Y-117333333D01*
X131583333Y-117428571D01*
X131583333Y-117619047D01*
X131630952Y-117714285D01*
X131678571Y-117761904D01*
X131773809Y-117809523D01*
X174357142Y-112357142D02*
X174309523Y-112404761D01*
X174166666Y-112452380D01*
X174071428Y-112452380D01*
X173928571Y-112404761D01*
X173833333Y-112309523D01*
X173785714Y-112214285D01*
X173738095Y-112023809D01*
X173738095Y-111880952D01*
X173785714Y-111690476D01*
X173833333Y-111595238D01*
X173928571Y-111500000D01*
X174071428Y-111452380D01*
X174166666Y-111452380D01*
X174309523Y-111500000D01*
X174357142Y-111547619D01*
X175309523Y-112452380D02*
X174738095Y-112452380D01*
X175023809Y-112452380D02*
X175023809Y-111452380D01*
X174928571Y-111595238D01*
X174833333Y-111690476D01*
X174738095Y-111738095D01*
X176214285Y-111452380D02*
X175738095Y-111452380D01*
X175690476Y-111928571D01*
X175738095Y-111880952D01*
X175833333Y-111833333D01*
X176071428Y-111833333D01*
X176166666Y-111880952D01*
X176214285Y-111928571D01*
X176261904Y-112023809D01*
X176261904Y-112261904D01*
X176214285Y-112357142D01*
X176166666Y-112404761D01*
X176071428Y-112452380D01*
X175833333Y-112452380D01*
X175738095Y-112404761D01*
X175690476Y-112357142D01*
X172357142Y-125357142D02*
X172309523Y-125404761D01*
X172166666Y-125452380D01*
X172071428Y-125452380D01*
X171928571Y-125404761D01*
X171833333Y-125309523D01*
X171785714Y-125214285D01*
X171738095Y-125023809D01*
X171738095Y-124880952D01*
X171785714Y-124690476D01*
X171833333Y-124595238D01*
X171928571Y-124500000D01*
X172071428Y-124452380D01*
X172166666Y-124452380D01*
X172309523Y-124500000D01*
X172357142Y-124547619D01*
X173309523Y-125452380D02*
X172738095Y-125452380D01*
X173023809Y-125452380D02*
X173023809Y-124452380D01*
X172928571Y-124595238D01*
X172833333Y-124690476D01*
X172738095Y-124738095D01*
X174166666Y-124785714D02*
X174166666Y-125452380D01*
X173928571Y-124404761D02*
X173690476Y-125119047D01*
X174309523Y-125119047D01*
X165857142Y-112357142D02*
X165809523Y-112404761D01*
X165666666Y-112452380D01*
X165571428Y-112452380D01*
X165428571Y-112404761D01*
X165333333Y-112309523D01*
X165285714Y-112214285D01*
X165238095Y-112023809D01*
X165238095Y-111880952D01*
X165285714Y-111690476D01*
X165333333Y-111595238D01*
X165428571Y-111500000D01*
X165571428Y-111452380D01*
X165666666Y-111452380D01*
X165809523Y-111500000D01*
X165857142Y-111547619D01*
X166809523Y-112452380D02*
X166238095Y-112452380D01*
X166523809Y-112452380D02*
X166523809Y-111452380D01*
X166428571Y-111595238D01*
X166333333Y-111690476D01*
X166238095Y-111738095D01*
X167142857Y-111452380D02*
X167761904Y-111452380D01*
X167428571Y-111833333D01*
X167571428Y-111833333D01*
X167666666Y-111880952D01*
X167714285Y-111928571D01*
X167761904Y-112023809D01*
X167761904Y-112261904D01*
X167714285Y-112357142D01*
X167666666Y-112404761D01*
X167571428Y-112452380D01*
X167285714Y-112452380D01*
X167190476Y-112404761D01*
X167142857Y-112357142D01*
X163857142Y-125357142D02*
X163809523Y-125404761D01*
X163666666Y-125452380D01*
X163571428Y-125452380D01*
X163428571Y-125404761D01*
X163333333Y-125309523D01*
X163285714Y-125214285D01*
X163238095Y-125023809D01*
X163238095Y-124880952D01*
X163285714Y-124690476D01*
X163333333Y-124595238D01*
X163428571Y-124500000D01*
X163571428Y-124452380D01*
X163666666Y-124452380D01*
X163809523Y-124500000D01*
X163857142Y-124547619D01*
X164809523Y-125452380D02*
X164238095Y-125452380D01*
X164523809Y-125452380D02*
X164523809Y-124452380D01*
X164428571Y-124595238D01*
X164333333Y-124690476D01*
X164238095Y-124738095D01*
X165190476Y-124547619D02*
X165238095Y-124500000D01*
X165333333Y-124452380D01*
X165571428Y-124452380D01*
X165666666Y-124500000D01*
X165714285Y-124547619D01*
X165761904Y-124642857D01*
X165761904Y-124738095D01*
X165714285Y-124880952D01*
X165142857Y-125452380D01*
X165761904Y-125452380D01*
X152357142Y-119392857D02*
X152404761Y-119440476D01*
X152452380Y-119583333D01*
X152452380Y-119678571D01*
X152404761Y-119821428D01*
X152309523Y-119916666D01*
X152214285Y-119964285D01*
X152023809Y-120011904D01*
X151880952Y-120011904D01*
X151690476Y-119964285D01*
X151595238Y-119916666D01*
X151500000Y-119821428D01*
X151452380Y-119678571D01*
X151452380Y-119583333D01*
X151500000Y-119440476D01*
X151547619Y-119392857D01*
X152452380Y-118440476D02*
X152452380Y-119011904D01*
X152452380Y-118726190D02*
X151452380Y-118726190D01*
X151595238Y-118821428D01*
X151690476Y-118916666D01*
X151738095Y-119011904D01*
X152452380Y-117488095D02*
X152452380Y-118059523D01*
X152452380Y-117773809D02*
X151452380Y-117773809D01*
X151595238Y-117869047D01*
X151690476Y-117964285D01*
X151738095Y-118059523D01*
X155107142Y-125357142D02*
X155059523Y-125404761D01*
X154916666Y-125452380D01*
X154821428Y-125452380D01*
X154678571Y-125404761D01*
X154583333Y-125309523D01*
X154535714Y-125214285D01*
X154488095Y-125023809D01*
X154488095Y-124880952D01*
X154535714Y-124690476D01*
X154583333Y-124595238D01*
X154678571Y-124500000D01*
X154821428Y-124452380D01*
X154916666Y-124452380D01*
X155059523Y-124500000D01*
X155107142Y-124547619D01*
X156059523Y-125452380D02*
X155488095Y-125452380D01*
X155773809Y-125452380D02*
X155773809Y-124452380D01*
X155678571Y-124595238D01*
X155583333Y-124690476D01*
X155488095Y-124738095D01*
X156678571Y-124452380D02*
X156773809Y-124452380D01*
X156869047Y-124500000D01*
X156916666Y-124547619D01*
X156964285Y-124642857D01*
X157011904Y-124833333D01*
X157011904Y-125071428D01*
X156964285Y-125261904D01*
X156916666Y-125357142D01*
X156869047Y-125404761D01*
X156773809Y-125452380D01*
X156678571Y-125452380D01*
X156583333Y-125404761D01*
X156535714Y-125357142D01*
X156488095Y-125261904D01*
X156440476Y-125071428D01*
X156440476Y-124833333D01*
X156488095Y-124642857D01*
X156535714Y-124547619D01*
X156583333Y-124500000D01*
X156678571Y-124452380D01*
X132333333Y-76857142D02*
X132285714Y-76904761D01*
X132142857Y-76952380D01*
X132047619Y-76952380D01*
X131904761Y-76904761D01*
X131809523Y-76809523D01*
X131761904Y-76714285D01*
X131714285Y-76523809D01*
X131714285Y-76380952D01*
X131761904Y-76190476D01*
X131809523Y-76095238D01*
X131904761Y-76000000D01*
X132047619Y-75952380D01*
X132142857Y-75952380D01*
X132285714Y-76000000D01*
X132333333Y-76047619D01*
X132809523Y-76952380D02*
X133000000Y-76952380D01*
X133095238Y-76904761D01*
X133142857Y-76857142D01*
X133238095Y-76714285D01*
X133285714Y-76523809D01*
X133285714Y-76142857D01*
X133238095Y-76047619D01*
X133190476Y-76000000D01*
X133095238Y-75952380D01*
X132904761Y-75952380D01*
X132809523Y-76000000D01*
X132761904Y-76047619D01*
X132714285Y-76142857D01*
X132714285Y-76380952D01*
X132761904Y-76476190D01*
X132809523Y-76523809D01*
X132904761Y-76571428D01*
X133095238Y-76571428D01*
X133190476Y-76523809D01*
X133238095Y-76476190D01*
X133285714Y-76380952D01*
X113333333Y-56857142D02*
X113285714Y-56904761D01*
X113142857Y-56952380D01*
X113047619Y-56952380D01*
X112904761Y-56904761D01*
X112809523Y-56809523D01*
X112761904Y-56714285D01*
X112714285Y-56523809D01*
X112714285Y-56380952D01*
X112761904Y-56190476D01*
X112809523Y-56095238D01*
X112904761Y-56000000D01*
X113047619Y-55952380D01*
X113142857Y-55952380D01*
X113285714Y-56000000D01*
X113333333Y-56047619D01*
X113904761Y-56380952D02*
X113809523Y-56333333D01*
X113761904Y-56285714D01*
X113714285Y-56190476D01*
X113714285Y-56142857D01*
X113761904Y-56047619D01*
X113809523Y-56000000D01*
X113904761Y-55952380D01*
X114095238Y-55952380D01*
X114190476Y-56000000D01*
X114238095Y-56047619D01*
X114285714Y-56142857D01*
X114285714Y-56190476D01*
X114238095Y-56285714D01*
X114190476Y-56333333D01*
X114095238Y-56380952D01*
X113904761Y-56380952D01*
X113809523Y-56428571D01*
X113761904Y-56476190D01*
X113714285Y-56571428D01*
X113714285Y-56761904D01*
X113761904Y-56857142D01*
X113809523Y-56904761D01*
X113904761Y-56952380D01*
X114095238Y-56952380D01*
X114190476Y-56904761D01*
X114238095Y-56857142D01*
X114285714Y-56761904D01*
X114285714Y-56571428D01*
X114238095Y-56476190D01*
X114190476Y-56428571D01*
X114095238Y-56380952D01*
X121333333Y-61857142D02*
X121285714Y-61904761D01*
X121142857Y-61952380D01*
X121047619Y-61952380D01*
X120904761Y-61904761D01*
X120809523Y-61809523D01*
X120761904Y-61714285D01*
X120714285Y-61523809D01*
X120714285Y-61380952D01*
X120761904Y-61190476D01*
X120809523Y-61095238D01*
X120904761Y-61000000D01*
X121047619Y-60952380D01*
X121142857Y-60952380D01*
X121285714Y-61000000D01*
X121333333Y-61047619D01*
X121666666Y-60952380D02*
X122333333Y-60952380D01*
X121904761Y-61952380D01*
X126857142Y-128166666D02*
X126904761Y-128214285D01*
X126952380Y-128357142D01*
X126952380Y-128452380D01*
X126904761Y-128595238D01*
X126809523Y-128690476D01*
X126714285Y-128738095D01*
X126523809Y-128785714D01*
X126380952Y-128785714D01*
X126190476Y-128738095D01*
X126095238Y-128690476D01*
X126000000Y-128595238D01*
X125952380Y-128452380D01*
X125952380Y-128357142D01*
X126000000Y-128214285D01*
X126047619Y-128166666D01*
X125952380Y-127309523D02*
X125952380Y-127500000D01*
X126000000Y-127595238D01*
X126047619Y-127642857D01*
X126190476Y-127738095D01*
X126380952Y-127785714D01*
X126761904Y-127785714D01*
X126857142Y-127738095D01*
X126904761Y-127690476D01*
X126952380Y-127595238D01*
X126952380Y-127404761D01*
X126904761Y-127309523D01*
X126857142Y-127261904D01*
X126761904Y-127214285D01*
X126523809Y-127214285D01*
X126428571Y-127261904D01*
X126380952Y-127309523D01*
X126333333Y-127404761D01*
X126333333Y-127595238D01*
X126380952Y-127690476D01*
X126428571Y-127738095D01*
X126523809Y-127785714D01*
X127857142Y-105666666D02*
X127904761Y-105714285D01*
X127952380Y-105857142D01*
X127952380Y-105952380D01*
X127904761Y-106095238D01*
X127809523Y-106190476D01*
X127714285Y-106238095D01*
X127523809Y-106285714D01*
X127380952Y-106285714D01*
X127190476Y-106238095D01*
X127095238Y-106190476D01*
X127000000Y-106095238D01*
X126952380Y-105952380D01*
X126952380Y-105857142D01*
X127000000Y-105714285D01*
X127047619Y-105666666D01*
X126952380Y-104761904D02*
X126952380Y-105238095D01*
X127428571Y-105285714D01*
X127380952Y-105238095D01*
X127333333Y-105142857D01*
X127333333Y-104904761D01*
X127380952Y-104809523D01*
X127428571Y-104761904D01*
X127523809Y-104714285D01*
X127761904Y-104714285D01*
X127857142Y-104761904D01*
X127904761Y-104809523D01*
X127952380Y-104904761D01*
X127952380Y-105142857D01*
X127904761Y-105238095D01*
X127857142Y-105285714D01*
X126857142Y-120166666D02*
X126904761Y-120214285D01*
X126952380Y-120357142D01*
X126952380Y-120452380D01*
X126904761Y-120595238D01*
X126809523Y-120690476D01*
X126714285Y-120738095D01*
X126523809Y-120785714D01*
X126380952Y-120785714D01*
X126190476Y-120738095D01*
X126095238Y-120690476D01*
X126000000Y-120595238D01*
X125952380Y-120452380D01*
X125952380Y-120357142D01*
X126000000Y-120214285D01*
X126047619Y-120166666D01*
X126285714Y-119309523D02*
X126952380Y-119309523D01*
X125904761Y-119547619D02*
X126619047Y-119785714D01*
X126619047Y-119166666D01*
X127333333Y-114357142D02*
X127285714Y-114404761D01*
X127142857Y-114452380D01*
X127047619Y-114452380D01*
X126904761Y-114404761D01*
X126809523Y-114309523D01*
X126761904Y-114214285D01*
X126714285Y-114023809D01*
X126714285Y-113880952D01*
X126761904Y-113690476D01*
X126809523Y-113595238D01*
X126904761Y-113500000D01*
X127047619Y-113452380D01*
X127142857Y-113452380D01*
X127285714Y-113500000D01*
X127333333Y-113547619D01*
X127666666Y-113452380D02*
X128285714Y-113452380D01*
X127952380Y-113833333D01*
X128095238Y-113833333D01*
X128190476Y-113880952D01*
X128238095Y-113928571D01*
X128285714Y-114023809D01*
X128285714Y-114261904D01*
X128238095Y-114357142D01*
X128190476Y-114404761D01*
X128095238Y-114452380D01*
X127809523Y-114452380D01*
X127714285Y-114404761D01*
X127666666Y-114357142D01*
X136333333Y-60857142D02*
X136285714Y-60904761D01*
X136142857Y-60952380D01*
X136047619Y-60952380D01*
X135904761Y-60904761D01*
X135809523Y-60809523D01*
X135761904Y-60714285D01*
X135714285Y-60523809D01*
X135714285Y-60380952D01*
X135761904Y-60190476D01*
X135809523Y-60095238D01*
X135904761Y-60000000D01*
X136047619Y-59952380D01*
X136142857Y-59952380D01*
X136285714Y-60000000D01*
X136333333Y-60047619D01*
X136714285Y-60047619D02*
X136761904Y-60000000D01*
X136857142Y-59952380D01*
X137095238Y-59952380D01*
X137190476Y-60000000D01*
X137238095Y-60047619D01*
X137285714Y-60142857D01*
X137285714Y-60238095D01*
X137238095Y-60380952D01*
X136666666Y-60952380D01*
X137285714Y-60952380D01*
X136333333Y-55857142D02*
X136285714Y-55904761D01*
X136142857Y-55952380D01*
X136047619Y-55952380D01*
X135904761Y-55904761D01*
X135809523Y-55809523D01*
X135761904Y-55714285D01*
X135714285Y-55523809D01*
X135714285Y-55380952D01*
X135761904Y-55190476D01*
X135809523Y-55095238D01*
X135904761Y-55000000D01*
X136047619Y-54952380D01*
X136142857Y-54952380D01*
X136285714Y-55000000D01*
X136333333Y-55047619D01*
X137285714Y-55952380D02*
X136714285Y-55952380D01*
X137000000Y-55952380D02*
X137000000Y-54952380D01*
X136904761Y-55095238D01*
X136809523Y-55190476D01*
X136714285Y-55238095D01*
X137048095Y-105122380D02*
X137048095Y-105931904D01*
X137095714Y-106027142D01*
X137143333Y-106074761D01*
X137238571Y-106122380D01*
X137429047Y-106122380D01*
X137524285Y-106074761D01*
X137571904Y-106027142D01*
X137619523Y-105931904D01*
X137619523Y-105122380D01*
X138000476Y-105122380D02*
X138619523Y-105122380D01*
X138286190Y-105503333D01*
X138429047Y-105503333D01*
X138524285Y-105550952D01*
X138571904Y-105598571D01*
X138619523Y-105693809D01*
X138619523Y-105931904D01*
X138571904Y-106027142D01*
X138524285Y-106074761D01*
X138429047Y-106122380D01*
X138143333Y-106122380D01*
X138048095Y-106074761D01*
X138000476Y-106027142D01*
X132238095Y-87452380D02*
X132238095Y-88261904D01*
X132285714Y-88357142D01*
X132333333Y-88404761D01*
X132428571Y-88452380D01*
X132619047Y-88452380D01*
X132714285Y-88404761D01*
X132761904Y-88357142D01*
X132809523Y-88261904D01*
X132809523Y-87452380D01*
X133238095Y-87547619D02*
X133285714Y-87500000D01*
X133380952Y-87452380D01*
X133619047Y-87452380D01*
X133714285Y-87500000D01*
X133761904Y-87547619D01*
X133809523Y-87642857D01*
X133809523Y-87738095D01*
X133761904Y-87880952D01*
X133190476Y-88452380D01*
X133809523Y-88452380D01*
X162032380Y-56301904D02*
X162841904Y-56301904D01*
X162937142Y-56254285D01*
X162984761Y-56206666D01*
X163032380Y-56111428D01*
X163032380Y-55920952D01*
X162984761Y-55825714D01*
X162937142Y-55778095D01*
X162841904Y-55730476D01*
X162032380Y-55730476D01*
X163032380Y-54730476D02*
X163032380Y-55301904D01*
X163032380Y-55016190D02*
X162032380Y-55016190D01*
X162175238Y-55111428D01*
X162270476Y-55206666D01*
X162318095Y-55301904D01*
X105511904Y-97804380D02*
X106083333Y-97804380D01*
X105797619Y-98804380D02*
X105797619Y-97804380D01*
X106416666Y-98804380D02*
X106416666Y-97804380D01*
X106797619Y-97804380D01*
X106892857Y-97852000D01*
X106940476Y-97899619D01*
X106988095Y-97994857D01*
X106988095Y-98137714D01*
X106940476Y-98232952D01*
X106892857Y-98280571D01*
X106797619Y-98328190D01*
X106416666Y-98328190D01*
X107940476Y-98804380D02*
X107369047Y-98804380D01*
X107654761Y-98804380D02*
X107654761Y-97804380D01*
X107559523Y-97947238D01*
X107464285Y-98042476D01*
X107369047Y-98090095D01*
X108845238Y-97804380D02*
X108369047Y-97804380D01*
X108321428Y-98280571D01*
X108369047Y-98232952D01*
X108464285Y-98185333D01*
X108702380Y-98185333D01*
X108797619Y-98232952D01*
X108845238Y-98280571D01*
X108892857Y-98375809D01*
X108892857Y-98613904D01*
X108845238Y-98709142D01*
X108797619Y-98756761D01*
X108702380Y-98804380D01*
X108464285Y-98804380D01*
X108369047Y-98756761D01*
X108321428Y-98709142D01*
X108261904Y-90304380D02*
X108833333Y-90304380D01*
X108547619Y-91304380D02*
X108547619Y-90304380D01*
X109166666Y-91304380D02*
X109166666Y-90304380D01*
X109547619Y-90304380D01*
X109642857Y-90352000D01*
X109690476Y-90399619D01*
X109738095Y-90494857D01*
X109738095Y-90637714D01*
X109690476Y-90732952D01*
X109642857Y-90780571D01*
X109547619Y-90828190D01*
X109166666Y-90828190D01*
X110690476Y-91304380D02*
X110119047Y-91304380D01*
X110404761Y-91304380D02*
X110404761Y-90304380D01*
X110309523Y-90447238D01*
X110214285Y-90542476D01*
X110119047Y-90590095D01*
X111547619Y-90637714D02*
X111547619Y-91304380D01*
X111309523Y-90256761D02*
X111071428Y-90971047D01*
X111690476Y-90971047D01*
X115261904Y-92452380D02*
X115833333Y-92452380D01*
X115547619Y-93452380D02*
X115547619Y-92452380D01*
X116166666Y-93452380D02*
X116166666Y-92452380D01*
X116547619Y-92452380D01*
X116642857Y-92500000D01*
X116690476Y-92547619D01*
X116738095Y-92642857D01*
X116738095Y-92785714D01*
X116690476Y-92880952D01*
X116642857Y-92928571D01*
X116547619Y-92976190D01*
X116166666Y-92976190D01*
X117690476Y-93452380D02*
X117119047Y-93452380D01*
X117404761Y-93452380D02*
X117404761Y-92452380D01*
X117309523Y-92595238D01*
X117214285Y-92690476D01*
X117119047Y-92738095D01*
X118023809Y-92452380D02*
X118642857Y-92452380D01*
X118309523Y-92833333D01*
X118452380Y-92833333D01*
X118547619Y-92880952D01*
X118595238Y-92928571D01*
X118642857Y-93023809D01*
X118642857Y-93261904D01*
X118595238Y-93357142D01*
X118547619Y-93404761D01*
X118452380Y-93452380D01*
X118166666Y-93452380D01*
X118071428Y-93404761D01*
X118023809Y-93357142D01*
X107261904Y-69452380D02*
X107833333Y-69452380D01*
X107547619Y-70452380D02*
X107547619Y-69452380D01*
X108166666Y-70452380D02*
X108166666Y-69452380D01*
X108547619Y-69452380D01*
X108642857Y-69500000D01*
X108690476Y-69547619D01*
X108738095Y-69642857D01*
X108738095Y-69785714D01*
X108690476Y-69880952D01*
X108642857Y-69928571D01*
X108547619Y-69976190D01*
X108166666Y-69976190D01*
X109690476Y-70452380D02*
X109119047Y-70452380D01*
X109404761Y-70452380D02*
X109404761Y-69452380D01*
X109309523Y-69595238D01*
X109214285Y-69690476D01*
X109119047Y-69738095D01*
X110071428Y-69547619D02*
X110119047Y-69500000D01*
X110214285Y-69452380D01*
X110452380Y-69452380D01*
X110547619Y-69500000D01*
X110595238Y-69547619D01*
X110642857Y-69642857D01*
X110642857Y-69738095D01*
X110595238Y-69880952D01*
X110023809Y-70452380D01*
X110642857Y-70452380D01*
X157011904Y-91804380D02*
X157583333Y-91804380D01*
X157297619Y-92804380D02*
X157297619Y-91804380D01*
X157916666Y-92804380D02*
X157916666Y-91804380D01*
X158297619Y-91804380D01*
X158392857Y-91852000D01*
X158440476Y-91899619D01*
X158488095Y-91994857D01*
X158488095Y-92137714D01*
X158440476Y-92232952D01*
X158392857Y-92280571D01*
X158297619Y-92328190D01*
X157916666Y-92328190D01*
X159440476Y-92804380D02*
X158869047Y-92804380D01*
X159154761Y-92804380D02*
X159154761Y-91804380D01*
X159059523Y-91947238D01*
X158964285Y-92042476D01*
X158869047Y-92090095D01*
X160392857Y-92804380D02*
X159821428Y-92804380D01*
X160107142Y-92804380D02*
X160107142Y-91804380D01*
X160011904Y-91947238D01*
X159916666Y-92042476D01*
X159821428Y-92090095D01*
X170011904Y-94554380D02*
X170583333Y-94554380D01*
X170297619Y-95554380D02*
X170297619Y-94554380D01*
X170916666Y-95554380D02*
X170916666Y-94554380D01*
X171297619Y-94554380D01*
X171392857Y-94602000D01*
X171440476Y-94649619D01*
X171488095Y-94744857D01*
X171488095Y-94887714D01*
X171440476Y-94982952D01*
X171392857Y-95030571D01*
X171297619Y-95078190D01*
X170916666Y-95078190D01*
X172440476Y-95554380D02*
X171869047Y-95554380D01*
X172154761Y-95554380D02*
X172154761Y-94554380D01*
X172059523Y-94697238D01*
X171964285Y-94792476D01*
X171869047Y-94840095D01*
X173059523Y-94554380D02*
X173154761Y-94554380D01*
X173250000Y-94602000D01*
X173297619Y-94649619D01*
X173345238Y-94744857D01*
X173392857Y-94935333D01*
X173392857Y-95173428D01*
X173345238Y-95363904D01*
X173297619Y-95459142D01*
X173250000Y-95506761D01*
X173154761Y-95554380D01*
X173059523Y-95554380D01*
X172964285Y-95506761D01*
X172916666Y-95459142D01*
X172869047Y-95363904D01*
X172821428Y-95173428D01*
X172821428Y-94935333D01*
X172869047Y-94744857D01*
X172916666Y-94649619D01*
X172964285Y-94602000D01*
X173059523Y-94554380D01*
X140738095Y-65452380D02*
X141309523Y-65452380D01*
X141023809Y-66452380D02*
X141023809Y-65452380D01*
X141642857Y-66452380D02*
X141642857Y-65452380D01*
X142023809Y-65452380D01*
X142119047Y-65500000D01*
X142166666Y-65547619D01*
X142214285Y-65642857D01*
X142214285Y-65785714D01*
X142166666Y-65880952D01*
X142119047Y-65928571D01*
X142023809Y-65976190D01*
X141642857Y-65976190D01*
X142690476Y-66452380D02*
X142880952Y-66452380D01*
X142976190Y-66404761D01*
X143023809Y-66357142D01*
X143119047Y-66214285D01*
X143166666Y-66023809D01*
X143166666Y-65642857D01*
X143119047Y-65547619D01*
X143071428Y-65500000D01*
X142976190Y-65452380D01*
X142785714Y-65452380D01*
X142690476Y-65500000D01*
X142642857Y-65547619D01*
X142595238Y-65642857D01*
X142595238Y-65880952D01*
X142642857Y-65976190D01*
X142690476Y-66023809D01*
X142785714Y-66071428D01*
X142976190Y-66071428D01*
X143071428Y-66023809D01*
X143119047Y-65976190D01*
X143166666Y-65880952D01*
X128988095Y-128304380D02*
X129559523Y-128304380D01*
X129273809Y-129304380D02*
X129273809Y-128304380D01*
X129892857Y-129304380D02*
X129892857Y-128304380D01*
X130273809Y-128304380D01*
X130369047Y-128352000D01*
X130416666Y-128399619D01*
X130464285Y-128494857D01*
X130464285Y-128637714D01*
X130416666Y-128732952D01*
X130369047Y-128780571D01*
X130273809Y-128828190D01*
X129892857Y-128828190D01*
X130797619Y-128304380D02*
X131464285Y-128304380D01*
X131035714Y-129304380D01*
X133488095Y-98804380D02*
X134059523Y-98804380D01*
X133773809Y-99804380D02*
X133773809Y-98804380D01*
X134392857Y-99804380D02*
X134392857Y-98804380D01*
X134773809Y-98804380D01*
X134869047Y-98852000D01*
X134916666Y-98899619D01*
X134964285Y-98994857D01*
X134964285Y-99137714D01*
X134916666Y-99232952D01*
X134869047Y-99280571D01*
X134773809Y-99328190D01*
X134392857Y-99328190D01*
X135821428Y-98804380D02*
X135630952Y-98804380D01*
X135535714Y-98852000D01*
X135488095Y-98899619D01*
X135392857Y-99042476D01*
X135345238Y-99232952D01*
X135345238Y-99613904D01*
X135392857Y-99709142D01*
X135440476Y-99756761D01*
X135535714Y-99804380D01*
X135726190Y-99804380D01*
X135821428Y-99756761D01*
X135869047Y-99709142D01*
X135916666Y-99613904D01*
X135916666Y-99375809D01*
X135869047Y-99280571D01*
X135821428Y-99232952D01*
X135726190Y-99185333D01*
X135535714Y-99185333D01*
X135440476Y-99232952D01*
X135392857Y-99280571D01*
X135345238Y-99375809D01*
X114738095Y-65452380D02*
X115309523Y-65452380D01*
X115023809Y-66452380D02*
X115023809Y-65452380D01*
X115642857Y-66452380D02*
X115642857Y-65452380D01*
X116023809Y-65452380D01*
X116119047Y-65500000D01*
X116166666Y-65547619D01*
X116214285Y-65642857D01*
X116214285Y-65785714D01*
X116166666Y-65880952D01*
X116119047Y-65928571D01*
X116023809Y-65976190D01*
X115642857Y-65976190D01*
X117119047Y-65452380D02*
X116642857Y-65452380D01*
X116595238Y-65928571D01*
X116642857Y-65880952D01*
X116738095Y-65833333D01*
X116976190Y-65833333D01*
X117071428Y-65880952D01*
X117119047Y-65928571D01*
X117166666Y-66023809D01*
X117166666Y-66261904D01*
X117119047Y-66357142D01*
X117071428Y-66404761D01*
X116976190Y-66452380D01*
X116738095Y-66452380D01*
X116642857Y-66404761D01*
X116595238Y-66357142D01*
X122738095Y-65452380D02*
X123309523Y-65452380D01*
X123023809Y-66452380D02*
X123023809Y-65452380D01*
X123642857Y-66452380D02*
X123642857Y-65452380D01*
X124023809Y-65452380D01*
X124119047Y-65500000D01*
X124166666Y-65547619D01*
X124214285Y-65642857D01*
X124214285Y-65785714D01*
X124166666Y-65880952D01*
X124119047Y-65928571D01*
X124023809Y-65976190D01*
X123642857Y-65976190D01*
X125071428Y-65785714D02*
X125071428Y-66452380D01*
X124833333Y-65404761D02*
X124595238Y-66119047D01*
X125214285Y-66119047D01*
X107738095Y-63304380D02*
X108309523Y-63304380D01*
X108023809Y-64304380D02*
X108023809Y-63304380D01*
X108642857Y-64304380D02*
X108642857Y-63304380D01*
X109023809Y-63304380D01*
X109119047Y-63352000D01*
X109166666Y-63399619D01*
X109214285Y-63494857D01*
X109214285Y-63637714D01*
X109166666Y-63732952D01*
X109119047Y-63780571D01*
X109023809Y-63828190D01*
X108642857Y-63828190D01*
X109547619Y-63304380D02*
X110166666Y-63304380D01*
X109833333Y-63685333D01*
X109976190Y-63685333D01*
X110071428Y-63732952D01*
X110119047Y-63780571D01*
X110166666Y-63875809D01*
X110166666Y-64113904D01*
X110119047Y-64209142D01*
X110071428Y-64256761D01*
X109976190Y-64304380D01*
X109690476Y-64304380D01*
X109595238Y-64256761D01*
X109547619Y-64209142D01*
X139638095Y-77304380D02*
X140209523Y-77304380D01*
X139923809Y-78304380D02*
X139923809Y-77304380D01*
X140542857Y-78304380D02*
X140542857Y-77304380D01*
X140923809Y-77304380D01*
X141019047Y-77352000D01*
X141066666Y-77399619D01*
X141114285Y-77494857D01*
X141114285Y-77637714D01*
X141066666Y-77732952D01*
X141019047Y-77780571D01*
X140923809Y-77828190D01*
X140542857Y-77828190D01*
X141495238Y-77399619D02*
X141542857Y-77352000D01*
X141638095Y-77304380D01*
X141876190Y-77304380D01*
X141971428Y-77352000D01*
X142019047Y-77399619D01*
X142066666Y-77494857D01*
X142066666Y-77590095D01*
X142019047Y-77732952D01*
X141447619Y-78304380D01*
X142066666Y-78304380D01*
X139738095Y-91452380D02*
X140309523Y-91452380D01*
X140023809Y-92452380D02*
X140023809Y-91452380D01*
X140642857Y-92452380D02*
X140642857Y-91452380D01*
X141023809Y-91452380D01*
X141119047Y-91500000D01*
X141166666Y-91547619D01*
X141214285Y-91642857D01*
X141214285Y-91785714D01*
X141166666Y-91880952D01*
X141119047Y-91928571D01*
X141023809Y-91976190D01*
X140642857Y-91976190D01*
X142166666Y-92452380D02*
X141595238Y-92452380D01*
X141880952Y-92452380D02*
X141880952Y-91452380D01*
X141785714Y-91595238D01*
X141690476Y-91690476D01*
X141595238Y-91738095D01*
X120416666Y-80404761D02*
X120559523Y-80452380D01*
X120797619Y-80452380D01*
X120892857Y-80404761D01*
X120940476Y-80357142D01*
X120988095Y-80261904D01*
X120988095Y-80166666D01*
X120940476Y-80071428D01*
X120892857Y-80023809D01*
X120797619Y-79976190D01*
X120607142Y-79928571D01*
X120511904Y-79880952D01*
X120464285Y-79833333D01*
X120416666Y-79738095D01*
X120416666Y-79642857D01*
X120464285Y-79547619D01*
X120511904Y-79500000D01*
X120607142Y-79452380D01*
X120845238Y-79452380D01*
X120988095Y-79500000D01*
X121321428Y-79452380D02*
X121559523Y-80452380D01*
X121750000Y-79738095D01*
X121940476Y-80452380D01*
X122178571Y-79452380D01*
X123083333Y-80452380D02*
X122511904Y-80452380D01*
X122797619Y-80452380D02*
X122797619Y-79452380D01*
X122702380Y-79595238D01*
X122607142Y-79690476D01*
X122511904Y-79738095D01*
X166437142Y-103082380D02*
X166103809Y-102606190D01*
X165865714Y-103082380D02*
X165865714Y-102082380D01*
X166246666Y-102082380D01*
X166341904Y-102130000D01*
X166389523Y-102177619D01*
X166437142Y-102272857D01*
X166437142Y-102415714D01*
X166389523Y-102510952D01*
X166341904Y-102558571D01*
X166246666Y-102606190D01*
X165865714Y-102606190D01*
X167389523Y-103082380D02*
X166818095Y-103082380D01*
X167103809Y-103082380D02*
X167103809Y-102082380D01*
X167008571Y-102225238D01*
X166913333Y-102320476D01*
X166818095Y-102368095D01*
X167722857Y-102082380D02*
X168341904Y-102082380D01*
X168008571Y-102463333D01*
X168151428Y-102463333D01*
X168246666Y-102510952D01*
X168294285Y-102558571D01*
X168341904Y-102653809D01*
X168341904Y-102891904D01*
X168294285Y-102987142D01*
X168246666Y-103034761D01*
X168151428Y-103082380D01*
X167865714Y-103082380D01*
X167770476Y-103034761D01*
X167722857Y-102987142D01*
X162687142Y-131832380D02*
X162353809Y-131356190D01*
X162115714Y-131832380D02*
X162115714Y-130832380D01*
X162496666Y-130832380D01*
X162591904Y-130880000D01*
X162639523Y-130927619D01*
X162687142Y-131022857D01*
X162687142Y-131165714D01*
X162639523Y-131260952D01*
X162591904Y-131308571D01*
X162496666Y-131356190D01*
X162115714Y-131356190D01*
X163639523Y-131832380D02*
X163068095Y-131832380D01*
X163353809Y-131832380D02*
X163353809Y-130832380D01*
X163258571Y-130975238D01*
X163163333Y-131070476D01*
X163068095Y-131118095D01*
X164020476Y-130927619D02*
X164068095Y-130880000D01*
X164163333Y-130832380D01*
X164401428Y-130832380D01*
X164496666Y-130880000D01*
X164544285Y-130927619D01*
X164591904Y-131022857D01*
X164591904Y-131118095D01*
X164544285Y-131260952D01*
X163972857Y-131832380D01*
X164591904Y-131832380D01*
X173777142Y-117822380D02*
X173443809Y-117346190D01*
X173205714Y-117822380D02*
X173205714Y-116822380D01*
X173586666Y-116822380D01*
X173681904Y-116870000D01*
X173729523Y-116917619D01*
X173777142Y-117012857D01*
X173777142Y-117155714D01*
X173729523Y-117250952D01*
X173681904Y-117298571D01*
X173586666Y-117346190D01*
X173205714Y-117346190D01*
X174729523Y-117822380D02*
X174158095Y-117822380D01*
X174443809Y-117822380D02*
X174443809Y-116822380D01*
X174348571Y-116965238D01*
X174253333Y-117060476D01*
X174158095Y-117108095D01*
X175681904Y-117822380D02*
X175110476Y-117822380D01*
X175396190Y-117822380D02*
X175396190Y-116822380D01*
X175300952Y-116965238D01*
X175205714Y-117060476D01*
X175110476Y-117108095D01*
X170027142Y-130822380D02*
X169693809Y-130346190D01*
X169455714Y-130822380D02*
X169455714Y-129822380D01*
X169836666Y-129822380D01*
X169931904Y-129870000D01*
X169979523Y-129917619D01*
X170027142Y-130012857D01*
X170027142Y-130155714D01*
X169979523Y-130250952D01*
X169931904Y-130298571D01*
X169836666Y-130346190D01*
X169455714Y-130346190D01*
X170979523Y-130822380D02*
X170408095Y-130822380D01*
X170693809Y-130822380D02*
X170693809Y-129822380D01*
X170598571Y-129965238D01*
X170503333Y-130060476D01*
X170408095Y-130108095D01*
X171598571Y-129822380D02*
X171693809Y-129822380D01*
X171789047Y-129870000D01*
X171836666Y-129917619D01*
X171884285Y-130012857D01*
X171931904Y-130203333D01*
X171931904Y-130441428D01*
X171884285Y-130631904D01*
X171836666Y-130727142D01*
X171789047Y-130774761D01*
X171693809Y-130822380D01*
X171598571Y-130822380D01*
X171503333Y-130774761D01*
X171455714Y-130727142D01*
X171408095Y-130631904D01*
X171360476Y-130441428D01*
X171360476Y-130203333D01*
X171408095Y-130012857D01*
X171455714Y-129917619D01*
X171503333Y-129870000D01*
X171598571Y-129822380D01*
X160413333Y-113082380D02*
X160080000Y-112606190D01*
X159841904Y-113082380D02*
X159841904Y-112082380D01*
X160222857Y-112082380D01*
X160318095Y-112130000D01*
X160365714Y-112177619D01*
X160413333Y-112272857D01*
X160413333Y-112415714D01*
X160365714Y-112510952D01*
X160318095Y-112558571D01*
X160222857Y-112606190D01*
X159841904Y-112606190D01*
X160889523Y-113082380D02*
X161080000Y-113082380D01*
X161175238Y-113034761D01*
X161222857Y-112987142D01*
X161318095Y-112844285D01*
X161365714Y-112653809D01*
X161365714Y-112272857D01*
X161318095Y-112177619D01*
X161270476Y-112130000D01*
X161175238Y-112082380D01*
X160984761Y-112082380D01*
X160889523Y-112130000D01*
X160841904Y-112177619D01*
X160794285Y-112272857D01*
X160794285Y-112510952D01*
X160841904Y-112606190D01*
X160889523Y-112653809D01*
X160984761Y-112701428D01*
X161175238Y-112701428D01*
X161270476Y-112653809D01*
X161318095Y-112606190D01*
X161365714Y-112510952D01*
X157253333Y-130822380D02*
X156920000Y-130346190D01*
X156681904Y-130822380D02*
X156681904Y-129822380D01*
X157062857Y-129822380D01*
X157158095Y-129870000D01*
X157205714Y-129917619D01*
X157253333Y-130012857D01*
X157253333Y-130155714D01*
X157205714Y-130250952D01*
X157158095Y-130298571D01*
X157062857Y-130346190D01*
X156681904Y-130346190D01*
X157824761Y-130250952D02*
X157729523Y-130203333D01*
X157681904Y-130155714D01*
X157634285Y-130060476D01*
X157634285Y-130012857D01*
X157681904Y-129917619D01*
X157729523Y-129870000D01*
X157824761Y-129822380D01*
X158015238Y-129822380D01*
X158110476Y-129870000D01*
X158158095Y-129917619D01*
X158205714Y-130012857D01*
X158205714Y-130060476D01*
X158158095Y-130155714D01*
X158110476Y-130203333D01*
X158015238Y-130250952D01*
X157824761Y-130250952D01*
X157729523Y-130298571D01*
X157681904Y-130346190D01*
X157634285Y-130441428D01*
X157634285Y-130631904D01*
X157681904Y-130727142D01*
X157729523Y-130774761D01*
X157824761Y-130822380D01*
X158015238Y-130822380D01*
X158110476Y-130774761D01*
X158158095Y-130727142D01*
X158205714Y-130631904D01*
X158205714Y-130441428D01*
X158158095Y-130346190D01*
X158110476Y-130298571D01*
X158015238Y-130250952D01*
X121822380Y-122746666D02*
X121346190Y-123080000D01*
X121822380Y-123318095D02*
X120822380Y-123318095D01*
X120822380Y-122937142D01*
X120870000Y-122841904D01*
X120917619Y-122794285D01*
X121012857Y-122746666D01*
X121155714Y-122746666D01*
X121250952Y-122794285D01*
X121298571Y-122841904D01*
X121346190Y-122937142D01*
X121346190Y-123318095D01*
X120822380Y-122413333D02*
X120822380Y-121746666D01*
X121822380Y-122175238D01*
X123082380Y-103086666D02*
X122606190Y-103420000D01*
X123082380Y-103658095D02*
X122082380Y-103658095D01*
X122082380Y-103277142D01*
X122130000Y-103181904D01*
X122177619Y-103134285D01*
X122272857Y-103086666D01*
X122415714Y-103086666D01*
X122510952Y-103134285D01*
X122558571Y-103181904D01*
X122606190Y-103277142D01*
X122606190Y-103658095D01*
X122082380Y-102229523D02*
X122082380Y-102420000D01*
X122130000Y-102515238D01*
X122177619Y-102562857D01*
X122320476Y-102658095D01*
X122510952Y-102705714D01*
X122891904Y-102705714D01*
X122987142Y-102658095D01*
X123034761Y-102610476D01*
X123082380Y-102515238D01*
X123082380Y-102324761D01*
X123034761Y-102229523D01*
X122987142Y-102181904D01*
X122891904Y-102134285D01*
X122653809Y-102134285D01*
X122558571Y-102181904D01*
X122510952Y-102229523D01*
X122463333Y-102324761D01*
X122463333Y-102515238D01*
X122510952Y-102610476D01*
X122558571Y-102658095D01*
X122653809Y-102705714D01*
X113082380Y-122586666D02*
X112606190Y-122920000D01*
X113082380Y-123158095D02*
X112082380Y-123158095D01*
X112082380Y-122777142D01*
X112130000Y-122681904D01*
X112177619Y-122634285D01*
X112272857Y-122586666D01*
X112415714Y-122586666D01*
X112510952Y-122634285D01*
X112558571Y-122681904D01*
X112606190Y-122777142D01*
X112606190Y-123158095D01*
X112082380Y-121681904D02*
X112082380Y-122158095D01*
X112558571Y-122205714D01*
X112510952Y-122158095D01*
X112463333Y-122062857D01*
X112463333Y-121824761D01*
X112510952Y-121729523D01*
X112558571Y-121681904D01*
X112653809Y-121634285D01*
X112891904Y-121634285D01*
X112987142Y-121681904D01*
X113034761Y-121729523D01*
X113082380Y-121824761D01*
X113082380Y-122062857D01*
X113034761Y-122158095D01*
X112987142Y-122205714D01*
X118082380Y-103086666D02*
X117606190Y-103420000D01*
X118082380Y-103658095D02*
X117082380Y-103658095D01*
X117082380Y-103277142D01*
X117130000Y-103181904D01*
X117177619Y-103134285D01*
X117272857Y-103086666D01*
X117415714Y-103086666D01*
X117510952Y-103134285D01*
X117558571Y-103181904D01*
X117606190Y-103277142D01*
X117606190Y-103658095D01*
X117415714Y-102229523D02*
X118082380Y-102229523D01*
X117034761Y-102467619D02*
X117749047Y-102705714D01*
X117749047Y-102086666D01*
X111082380Y-82086666D02*
X110606190Y-82420000D01*
X111082380Y-82658095D02*
X110082380Y-82658095D01*
X110082380Y-82277142D01*
X110130000Y-82181904D01*
X110177619Y-82134285D01*
X110272857Y-82086666D01*
X110415714Y-82086666D01*
X110510952Y-82134285D01*
X110558571Y-82181904D01*
X110606190Y-82277142D01*
X110606190Y-82658095D01*
X110082380Y-81753333D02*
X110082380Y-81134285D01*
X110463333Y-81467619D01*
X110463333Y-81324761D01*
X110510952Y-81229523D01*
X110558571Y-81181904D01*
X110653809Y-81134285D01*
X110891904Y-81134285D01*
X110987142Y-81181904D01*
X111034761Y-81229523D01*
X111082380Y-81324761D01*
X111082380Y-81610476D01*
X111034761Y-81705714D01*
X110987142Y-81753333D01*
X106082380Y-82086666D02*
X105606190Y-82420000D01*
X106082380Y-82658095D02*
X105082380Y-82658095D01*
X105082380Y-82277142D01*
X105130000Y-82181904D01*
X105177619Y-82134285D01*
X105272857Y-82086666D01*
X105415714Y-82086666D01*
X105510952Y-82134285D01*
X105558571Y-82181904D01*
X105606190Y-82277142D01*
X105606190Y-82658095D01*
X105177619Y-81705714D02*
X105130000Y-81658095D01*
X105082380Y-81562857D01*
X105082380Y-81324761D01*
X105130000Y-81229523D01*
X105177619Y-81181904D01*
X105272857Y-81134285D01*
X105368095Y-81134285D01*
X105510952Y-81181904D01*
X106082380Y-81753333D01*
X106082380Y-81134285D01*
X113833333Y-69452380D02*
X113500000Y-68976190D01*
X113261904Y-69452380D02*
X113261904Y-68452380D01*
X113642857Y-68452380D01*
X113738095Y-68500000D01*
X113785714Y-68547619D01*
X113833333Y-68642857D01*
X113833333Y-68785714D01*
X113785714Y-68880952D01*
X113738095Y-68928571D01*
X113642857Y-68976190D01*
X113261904Y-68976190D01*
X114785714Y-69452380D02*
X114214285Y-69452380D01*
X114500000Y-69452380D02*
X114500000Y-68452380D01*
X114404761Y-68595238D01*
X114309523Y-68690476D01*
X114214285Y-68738095D01*
D14*
X163666553Y-83452195D02*
X163666553Y-84166723D01*
X163618918Y-84309628D01*
X163523648Y-84404899D01*
X163380742Y-84452534D01*
X163285472Y-84452534D01*
X164571622Y-83452195D02*
X164381081Y-83452195D01*
X164285811Y-83499830D01*
X164238175Y-83547465D01*
X164142905Y-83690371D01*
X164095270Y-83880912D01*
X164095270Y-84261993D01*
X164142905Y-84357263D01*
X164190540Y-84404899D01*
X164285811Y-84452534D01*
X164476351Y-84452534D01*
X164571622Y-84404899D01*
X164619257Y-84357263D01*
X164666892Y-84261993D01*
X164666892Y-84023817D01*
X164619257Y-83928547D01*
X164571622Y-83880912D01*
X164476351Y-83833276D01*
X164285811Y-83833276D01*
X164190540Y-83880912D01*
X164142905Y-83928547D01*
X164095270Y-84023817D01*
X163666553Y-73452195D02*
X163666553Y-74166723D01*
X163618918Y-74309628D01*
X163523648Y-74404899D01*
X163380742Y-74452534D01*
X163285472Y-74452534D01*
X164619257Y-73452195D02*
X164142905Y-73452195D01*
X164095270Y-73928547D01*
X164142905Y-73880912D01*
X164238175Y-73833276D01*
X164476351Y-73833276D01*
X164571622Y-73880912D01*
X164619257Y-73928547D01*
X164666892Y-74023817D01*
X164666892Y-74261993D01*
X164619257Y-74357263D01*
X164571622Y-74404899D01*
X164476351Y-74452534D01*
X164238175Y-74452534D01*
X164142905Y-74404899D01*
X164095270Y-74357263D01*
X86666553Y-100452195D02*
X86666553Y-101166723D01*
X86618918Y-101309628D01*
X86523648Y-101404899D01*
X86380742Y-101452534D01*
X86285472Y-101452534D01*
X87571622Y-100785641D02*
X87571622Y-101452534D01*
X87333446Y-100404560D02*
X87095270Y-101119087D01*
X87714527Y-101119087D01*
X86666553Y-90452195D02*
X86666553Y-91166723D01*
X86618918Y-91309628D01*
X86523648Y-91404899D01*
X86380742Y-91452534D01*
X86285472Y-91452534D01*
X87047635Y-90452195D02*
X87666892Y-90452195D01*
X87333446Y-90833276D01*
X87476351Y-90833276D01*
X87571622Y-90880912D01*
X87619257Y-90928547D01*
X87666892Y-91023817D01*
X87666892Y-91261993D01*
X87619257Y-91357263D01*
X87571622Y-91404899D01*
X87476351Y-91452534D01*
X87190540Y-91452534D01*
X87095270Y-91404899D01*
X87047635Y-91357263D01*
X86666553Y-80452195D02*
X86666553Y-81166723D01*
X86618918Y-81309628D01*
X86523648Y-81404899D01*
X86380742Y-81452534D01*
X86285472Y-81452534D01*
X87095270Y-80547465D02*
X87142905Y-80499830D01*
X87238175Y-80452195D01*
X87476351Y-80452195D01*
X87571622Y-80499830D01*
X87619257Y-80547465D01*
X87666892Y-80642736D01*
X87666892Y-80738006D01*
X87619257Y-80880912D01*
X87047635Y-81452534D01*
X87666892Y-81452534D01*
D10*
X125692380Y-52193333D02*
X126406666Y-52193333D01*
X126549523Y-52240952D01*
X126644761Y-52336190D01*
X126692380Y-52479047D01*
X126692380Y-52574285D01*
X126692380Y-51193333D02*
X126692380Y-51764761D01*
X126692380Y-51479047D02*
X125692380Y-51479047D01*
X125835238Y-51574285D01*
X125930476Y-51669523D01*
X125978095Y-51764761D01*
%LPC*%
D15*
X145250000Y-121000000D03*
X145250000Y-126000000D03*
X129250000Y-121000000D03*
X129250000Y-116000000D03*
X172500000Y-109500000D03*
X177500000Y-109500000D03*
X170500000Y-122500000D03*
X175500000Y-122500000D03*
X164000000Y-109500000D03*
X169000000Y-109500000D03*
X162000000Y-122500000D03*
X167000000Y-122500000D03*
X149500000Y-121250000D03*
X149500000Y-116250000D03*
X153250000Y-122500000D03*
X158250000Y-122500000D03*
X130000000Y-74000000D03*
X135000000Y-74000000D03*
X116000000Y-59000000D03*
X111000000Y-59000000D03*
X119000000Y-59000000D03*
X124000000Y-59000000D03*
X124000000Y-130500000D03*
X124000000Y-125500000D03*
X130000000Y-103000000D03*
X130000000Y-108000000D03*
X124000000Y-122500000D03*
X124000000Y-117500000D03*
X125000000Y-111500000D03*
X130000000Y-111500000D03*
X134000000Y-58000000D03*
X139000000Y-58000000D03*
X134000000Y-53000000D03*
X139000000Y-53000000D03*
D16*
X179780419Y-50219581D03*
X177500000Y-49275000D03*
X175219581Y-50219581D03*
X174275000Y-52500000D03*
X175219581Y-54780419D03*
X177500000Y-55725000D03*
X179780419Y-54780419D03*
X180725000Y-52500000D03*
D17*
X177500000Y-52500000D03*
D16*
X179780419Y-135219581D03*
X177500000Y-134275000D03*
X175219581Y-135219581D03*
X174275000Y-137500000D03*
X175219581Y-139780419D03*
X177500000Y-140725000D03*
X179780419Y-139780419D03*
X180725000Y-137500000D03*
D17*
X177500000Y-137500000D03*
D16*
X94780419Y-135219581D03*
X92500000Y-134275000D03*
X90219581Y-135219581D03*
X89275000Y-137500000D03*
X90219581Y-139780419D03*
X92500000Y-140725000D03*
X94780419Y-139780419D03*
X95725000Y-137500000D03*
D17*
X92500000Y-137500000D03*
D16*
X94780419Y-50219581D03*
X92500000Y-49275000D03*
X90219581Y-50219581D03*
X89275000Y-52500000D03*
X90219581Y-54780419D03*
X92500000Y-55725000D03*
X94780419Y-54780419D03*
X95725000Y-52500000D03*
D17*
X92500000Y-52500000D03*
D18*
X141620000Y-108000000D03*
X134000000Y-125780000D03*
X141620000Y-110540000D03*
X134000000Y-123240000D03*
X141620000Y-113080000D03*
X134000000Y-120700000D03*
X141620000Y-115620000D03*
X134000000Y-118160000D03*
X141620000Y-118160000D03*
X134000000Y-115620000D03*
X141620000Y-120700000D03*
X134000000Y-113080000D03*
X141620000Y-123240000D03*
X134000000Y-110540000D03*
X141620000Y-125780000D03*
D19*
X134000000Y-108000000D03*
D18*
X136620000Y-78000000D03*
X129000000Y-85620000D03*
X136620000Y-80540000D03*
X129000000Y-83080000D03*
X136620000Y-83080000D03*
X129000000Y-80540000D03*
X136620000Y-85620000D03*
D19*
X129000000Y-78000000D03*
D20*
X142000000Y-58080000D03*
X142000000Y-55540000D03*
D21*
X142000000Y-53000000D03*
D22*
X158660000Y-55540000D03*
D23*
X107250000Y-100500000D03*
X110000000Y-93000000D03*
X117000000Y-90000000D03*
X109000000Y-73000000D03*
X158750000Y-94500000D03*
X171750000Y-97250000D03*
X142000000Y-63000000D03*
X130250000Y-131000000D03*
X134750000Y-101500000D03*
X116000000Y-63000000D03*
X124000000Y-63000000D03*
X109000000Y-66000000D03*
X140900000Y-80000000D03*
X141000000Y-89000000D03*
D24*
X118500000Y-78000000D03*
X118500000Y-73500000D03*
X125000000Y-78000000D03*
X125000000Y-73500000D03*
D18*
X172160000Y-105000000D03*
D15*
X162000000Y-105000000D03*
D18*
X168410000Y-133750000D03*
D15*
X158250000Y-133750000D03*
D18*
X169340000Y-115000000D03*
D15*
X179500000Y-115000000D03*
D18*
X165590000Y-128000000D03*
D15*
X175750000Y-128000000D03*
D18*
X165660000Y-115000000D03*
D15*
X155500000Y-115000000D03*
D18*
X152340000Y-128000000D03*
D15*
X162500000Y-128000000D03*
D18*
X119000000Y-127660000D03*
D15*
X119000000Y-117500000D03*
D18*
X125000000Y-97840000D03*
D15*
X125000000Y-108000000D03*
D18*
X115000000Y-117340000D03*
D15*
X115000000Y-127500000D03*
D18*
X120000000Y-97840000D03*
D15*
X120000000Y-108000000D03*
D18*
X113000000Y-76840000D03*
D15*
X113000000Y-87000000D03*
D18*
X108000000Y-76840000D03*
D15*
X108000000Y-87000000D03*
D18*
X115840000Y-70000000D03*
D15*
X126000000Y-70000000D03*
D25*
X167450000Y-87000000D03*
X173150000Y-87000000D03*
X178550000Y-87000000D03*
X167450000Y-77000000D03*
X173150000Y-77000000D03*
X178550000Y-77000000D03*
X102550000Y-97000000D03*
X96850000Y-97000000D03*
X91450000Y-97000000D03*
X102550000Y-87000000D03*
X96850000Y-87000000D03*
X91450000Y-87000000D03*
X102550000Y-77000000D03*
X96850000Y-77000000D03*
X91450000Y-77000000D03*
D26*
X113750000Y-53130000D03*
X113750000Y-50590000D03*
X116290000Y-53130000D03*
X116290000Y-50590000D03*
X118830000Y-53130000D03*
X118830000Y-50590000D03*
X121370000Y-53130000D03*
X121370000Y-50590000D03*
X123910000Y-53130000D03*
D27*
X123910000Y-50590000D03*
M02*
