M48
; DRILL file {KiCad (5.1.9)-1} date 05/12/21 03:31:30
; FORMAT={-:-/ absolute / metric / decimal}
; #@! TF.CreationDate,2021-05-12T03:31:30-04:00
; #@! TF.GenerationSoftware,Kicad,Pcbnew,(5.1.9)-1
; #@! TF.FileFunction,Plated,1,2,PTH
FMAT,2
METRIC
T1C0.600
T2C0.800
T3C1.000
T4C1.100
T5C1.200
T6C4.300
%
G90
G05
T1
X89.275Y-52.5
X89.275Y-137.5
X90.22Y-50.22
X90.22Y-54.78
X90.22Y-135.22
X90.22Y-139.78
X92.5Y-49.275
X92.5Y-55.725
X92.5Y-134.275
X92.5Y-140.725
X94.78Y-50.22
X94.78Y-54.78
X94.78Y-135.22
X94.78Y-139.78
X95.725Y-52.5
X95.725Y-137.5
X174.275Y-52.5
X174.275Y-137.5
X175.22Y-50.22
X175.22Y-54.78
X175.22Y-135.22
X175.22Y-139.78
X177.5Y-49.275
X177.5Y-55.725
X177.5Y-134.275
X177.5Y-140.725
X179.78Y-50.22
X179.78Y-54.78
X179.78Y-135.22
X179.78Y-139.78
X180.725Y-52.5
X180.725Y-137.5
T2
X108.0Y-76.84
X108.0Y-87.0
X111.0Y-59.0
X113.0Y-76.84
X113.0Y-87.0
X115.0Y-117.34
X115.0Y-127.5
X115.84Y-70.0
X116.0Y-59.0
X119.0Y-59.0
X119.0Y-117.5
X119.0Y-127.66
X120.0Y-97.84
X120.0Y-108.0
X124.0Y-59.0
X124.0Y-117.5
X124.0Y-122.5
X124.0Y-125.5
X124.0Y-130.5
X125.0Y-97.84
X125.0Y-108.0
X125.0Y-111.5
X126.0Y-70.0
X129.0Y-78.0
X129.0Y-80.54
X129.0Y-83.08
X129.0Y-85.62
X129.25Y-116.0
X129.25Y-121.0
X130.0Y-74.0
X130.0Y-103.0
X130.0Y-108.0
X130.0Y-111.5
X134.0Y-53.0
X134.0Y-58.0
X134.0Y-108.0
X134.0Y-110.54
X134.0Y-113.08
X134.0Y-115.62
X134.0Y-118.16
X134.0Y-120.7
X134.0Y-123.24
X134.0Y-125.78
X135.0Y-74.0
X136.62Y-78.0
X136.62Y-80.54
X136.62Y-83.08
X136.62Y-85.62
X139.0Y-53.0
X139.0Y-58.0
X141.62Y-108.0
X141.62Y-110.54
X141.62Y-113.08
X141.62Y-115.62
X141.62Y-118.16
X141.62Y-120.7
X141.62Y-123.24
X141.62Y-125.78
X145.25Y-121.0
X145.25Y-126.0
X149.5Y-116.25
X149.5Y-121.25
X152.34Y-128.0
X153.25Y-122.5
X155.5Y-115.0
X158.25Y-122.5
X158.25Y-133.75
X162.0Y-105.0
X162.0Y-122.5
X162.5Y-128.0
X164.0Y-109.5
X165.59Y-128.0
X165.66Y-115.0
X167.0Y-122.5
X168.41Y-133.75
X169.0Y-109.5
X169.34Y-115.0
X170.5Y-122.5
X172.16Y-105.0
X172.5Y-109.5
X175.5Y-122.5
X175.75Y-128.0
X177.5Y-109.5
X179.5Y-115.0
T3
X113.75Y-50.59
X113.75Y-53.13
X116.29Y-50.59
X116.29Y-53.13
X118.83Y-50.59
X118.83Y-53.13
X121.37Y-50.59
X121.37Y-53.13
X123.91Y-50.59
X123.91Y-53.13
T4
X118.5Y-73.5
X118.5Y-78.0
X125.0Y-73.5
X125.0Y-78.0
X142.0Y-53.0
X142.0Y-55.54
X142.0Y-58.08
T6
X92.5Y-52.5
X92.5Y-137.5
X177.5Y-52.5
X177.5Y-137.5
T5
X91.45Y-76.35G85X91.45Y-77.65
G05
X91.45Y-86.35G85X91.45Y-87.65
G05
X91.45Y-96.35G85X91.45Y-97.65
G05
X96.85Y-76.35G85X96.85Y-77.65
G05
X96.85Y-86.35G85X96.85Y-87.65
G05
X96.85Y-96.35G85X96.85Y-97.65
G05
X102.55Y-76.35G85X102.55Y-77.65
G05
X102.55Y-86.35G85X102.55Y-87.65
G05
X102.55Y-96.35G85X102.55Y-97.65
G05
X167.45Y-77.65G85X167.45Y-76.35
G05
X167.45Y-87.65G85X167.45Y-86.35
G05
X173.15Y-77.65G85X173.15Y-76.35
G05
X173.15Y-87.65G85X173.15Y-86.35
G05
X178.55Y-77.65G85X178.55Y-76.35
G05
X178.55Y-87.65G85X178.55Y-86.35
G05
T0
M30
